<svg xmlns="http://www.w3.org/2000/svg" xmlns:xlink="http://www.w3.org/1999/xlink" width="1920" height="771" viewBox="0 0 1920 771">
  <defs>
    <linearGradient id="linear-gradient" x1="0.5" x2="0.5" y2="1" gradientUnits="objectBoundingBox">
      <stop offset="0" stop-color="#ffce60"/>
      <stop offset="1" stop-color="#ffaf00" stop-opacity="0.627"/>
    </linearGradient>
  </defs>
  <g id="Group_2085" data-name="Group 2085" transform="translate(2209 24847)">
    <rect id="Rectangle_492" data-name="Rectangle 492" width="1920" height="771" transform="translate(-2209 -24847)" fill="url(#linear-gradient)"/>
    <g id="Group_2084" data-name="Group 2084" transform="translate(-525 -24672.818)" opacity="0.479">
      <path id="Path_2032" data-name="Path 2032" d="M94.251-66.739a43.866,43.866,0,0,1,3.775,10.063.856.856,0,0,0,.787.813,6,6,0,0,1,2.828.647c.316,0,.943,0,1.1-.487,3.615-4.384,5.345-6.492,6.132-7.3h0a33.561,33.561,0,0,1-2.2,9.577,1.249,1.249,0,0,0,.156,1.3,15.458,15.458,0,0,1,3.144,4.058,2.252,2.252,0,0,0,1.1.321,108.668,108.668,0,0,1,13.047-1.134h.471a92.874,92.874,0,0,1-11.949,6.657.887.887,0,0,0-.627.973,13.437,13.437,0,0,1-.471,5.032c0,.487,0,.813.471,1.134,6.132,4.545,8.489,6.818,9.276,7.791h-.156a54.065,54.065,0,0,1-12.109-2.107.439.439,0,0,0-.325-.141.992.992,0,0,0-.617.3,15.879,15.879,0,0,1-3.46,3.085.985.985,0,0,0-.471.973,42.1,42.1,0,0,1,.943,7.3,57.716,57.716,0,0,1-4.4-5.844c-.316-.487-.627-.487-1.1-.487a32.149,32.149,0,0,1-3.257.3,7.426,7.426,0,0,1-1.461-.136.972.972,0,0,0-.943.647c-2.988,7.791-4.247,10.55-5.034,11.523A62.5,62.5,0,0,1,87.808-26a1.754,1.754,0,0,0-.316-.808,16.043,16.043,0,0,1-3.615-3.737.916.916,0,0,0-.787-.321c-.156,0-.156,0,.156.161-5.656,1.786-9.587,2.92-11.477,3.085,1.258-2.112,5.661-6.657,9.121-9.416a.985.985,0,0,0,.471-.973,22.685,22.685,0,0,1-.156-3.246.891.891,0,0,0-.632-.973,102.292,102.292,0,0,1-9.432-5.523h.627a62.9,62.9,0,0,1,9.908.813,1.172,1.172,0,0,0,1.1-.647l.16-.326a9.2,9.2,0,0,1,1.73-2.6c.471-.321.471-.647.156-1.134a51.539,51.539,0,0,1-2.828-7.3h0a72.624,72.624,0,0,1,5.656,4.706.745.745,0,0,0,.613.389.687.687,0,0,0,.49-.224c1.1-.491,2.2-.978,3.144-1.3.316,0,.632-.487.632-.813A70.971,70.971,0,0,1,94.251-66.739ZM93.94-69.5c-.943,0-2.2,0-3.775,12.17a15.812,15.812,0,0,0-2.357,1.139,27.308,27.308,0,0,0-7.075-5.2,1.615,1.615,0,0,0-1.258.652c-.471.647-.787,1.46,2.673,9.577a21.888,21.888,0,0,0-1.574,2.433,83.256,83.256,0,0,0-9.587-.808,10.22,10.22,0,0,0-2.361.161.922.922,0,0,0-.943.973c-.316.813-.316,1.947,10.69,7.791a12.768,12.768,0,0,0,0,2.438c-3.455,2.759-8.96,8.438-9.747,10.711a1.881,1.881,0,0,0,.16,1.3,2.566,2.566,0,0,0,1.73.487c2.041,0,5.972-.973,12.1-2.92a18.505,18.505,0,0,0,3.144,2.92c-.316,4.871.471,13.635,1.73,15.747a1.694,1.694,0,0,0,1.1.487c1.1,0,2.2,0,6.6-12.175a4.7,4.7,0,0,0,1.2.141,21.7,21.7,0,0,0,2.729-.3c1.725,2.433,4.4,6.166,5.816,6.652a.618.618,0,0,0,.627.326,1.772,1.772,0,0,0,.943-.487c.471-.652.787-1.139-.627-9.251a16.068,16.068,0,0,0,2.988-2.764,54.136,54.136,0,0,0,11.949,2.112,4.275,4.275,0,0,0,1.57-.161c.632-.326,1.1-.652,1.1-1.139,0-.813.156-1.946-10.063-9.9a19,19,0,0,0,.316-4.219c4.713-2.273,11.793-6.166,13.207-7.951a1.053,1.053,0,0,0,.156-1.465c-.316-.808-1.57-.973-3.3-.973a121.921,121.921,0,0,0-12.736,1.3,20.014,20.014,0,0,0-2.833-3.572c1.258-3.406,2.361-9.411,2.046-11.363a1.378,1.378,0,0,0-1.259-.973c-.471,0-1.574,0-7.862,8.117-.471-.161-1.1-.161-1.73-.326-.943-3.893-3.144-9.737-4.558-11.2A1.052,1.052,0,0,0,93.94-69.5Z" transform="translate(94.314 62.417)" fill="#fff" fill-rule="evenodd"/>
      <g id="Group_1956" data-name="Group 1956" transform="translate(161.91 -7.081)">
        <path id="Path_2033" data-name="Path 2033" d="M26.751,2.761a43.863,43.863,0,0,1,3.775,10.063.856.856,0,0,0,.787.813,6,6,0,0,1,2.828.647c.316,0,.943,0,1.1-.487,3.615-4.384,5.345-6.492,6.132-7.3h0a33.561,33.561,0,0,1-2.2,9.577,1.249,1.249,0,0,0,.156,1.3,15.458,15.458,0,0,1,3.144,4.058,2.253,2.253,0,0,0,1.1.321,108.666,108.666,0,0,1,13.047-1.134H57.1a92.875,92.875,0,0,1-11.949,6.657.887.887,0,0,0-.627.973,13.437,13.437,0,0,1-.471,5.032c0,.487,0,.813.471,1.134,6.132,4.545,8.489,6.818,9.276,7.791h-.156a54.065,54.065,0,0,1-12.109-2.107.439.439,0,0,0-.325-.141.992.992,0,0,0-.617.3,15.878,15.878,0,0,1-3.46,3.085.985.985,0,0,0-.471.973,42.1,42.1,0,0,1,.943,7.3,57.712,57.712,0,0,1-4.4-5.844c-.316-.487-.627-.487-1.1-.487a32.144,32.144,0,0,1-3.257.3,7.425,7.425,0,0,1-1.461-.136.972.972,0,0,0-.943.647c-2.988,7.791-4.247,10.55-5.034,11.523a62.5,62.5,0,0,1-1.1-14.122,1.754,1.754,0,0,0-.316-.808,16.042,16.042,0,0,1-3.615-3.737.916.916,0,0,0-.787-.321c-.156,0-.156,0,.156.161-5.656,1.786-9.587,2.92-11.477,3.085,1.258-2.112,5.661-6.657,9.121-9.416a.985.985,0,0,0,.471-.973,22.684,22.684,0,0,1-.156-3.246.891.891,0,0,0-.632-.973,102.3,102.3,0,0,1-9.432-5.523h.627a62.9,62.9,0,0,1,9.908.813,1.172,1.172,0,0,0,1.1-.647l.16-.326a9.2,9.2,0,0,1,1.73-2.6c.471-.321.471-.647.156-1.134a51.542,51.542,0,0,1-2.828-7.3h0a72.622,72.622,0,0,1,5.656,4.706.745.745,0,0,0,.613.389.687.687,0,0,0,.49-.224c1.1-.491,2.2-.978,3.144-1.3.316,0,.632-.487.632-.813A70.978,70.978,0,0,1,26.751,2.761ZM26.44,0c-.943,0-2.2,0-3.775,12.17a15.814,15.814,0,0,0-2.357,1.139,27.308,27.308,0,0,0-7.075-5.2,1.615,1.615,0,0,0-1.259.652c-.471.647-.787,1.46,2.673,9.577a21.891,21.891,0,0,0-1.574,2.433,83.255,83.255,0,0,0-9.587-.808,10.22,10.22,0,0,0-2.361.161.922.922,0,0,0-.943.973c-.316.813-.316,1.946,10.69,7.791a12.766,12.766,0,0,0,0,2.438c-3.455,2.759-8.96,8.438-9.747,10.711a1.881,1.881,0,0,0,.16,1.3,2.566,2.566,0,0,0,1.73.487c2.041,0,5.972-.973,12.1-2.92a18.505,18.505,0,0,0,3.144,2.92c-.316,4.871.471,13.635,1.73,15.747a1.694,1.694,0,0,0,1.1.487c1.1,0,2.2,0,6.6-12.175a4.7,4.7,0,0,0,1.2.141,21.7,21.7,0,0,0,2.729-.3c1.725,2.433,4.4,6.166,5.816,6.652a.618.618,0,0,0,.627.326,1.772,1.772,0,0,0,.943-.487c.471-.652.787-1.139-.627-9.251A16.069,16.069,0,0,0,41.377,42.2a54.135,54.135,0,0,0,11.949,2.112,4.275,4.275,0,0,0,1.57-.161c.632-.326,1.1-.652,1.1-1.139,0-.813.156-1.946-10.063-9.9a19.006,19.006,0,0,0,.316-4.219c4.713-2.273,11.793-6.166,13.207-7.951a1.053,1.053,0,0,0,.156-1.465c-.316-.808-1.57-.973-3.3-.973a121.929,121.929,0,0,0-12.736,1.3,20.014,20.014,0,0,0-2.833-3.572C42,12.825,43.107,6.82,42.791,4.868A1.378,1.378,0,0,0,41.532,3.9c-.471,0-1.574,0-7.862,8.117-.471-.161-1.1-.161-1.73-.326C31,7.793,28.8,1.949,27.383.489A1.052,1.052,0,0,0,26.44,0Z" transform="translate(-0.096 -0.002)" fill="#fff" stroke="#fff" stroke-linejoin="round" stroke-width="0.75"/>
      </g>
      <path id="Path_2034" data-name="Path 2034" d="M50.512-109a2.133,2.133,0,0,0-2.145,2.1L33.006-26.133c0,1.813.95,3.165,3.354,3.612A2.862,2.862,0,0,0,39.24-24.78l14.886-80.77a2.3,2.3,0,0,0-2.39-3.152A2.9,2.9,0,0,0,50.512-109Z" transform="translate(45.799 7.013)" fill="#fff" fill-rule="evenodd"/>
      <path id="Path_2035" data-name="Path 2035" d="M109.973-98a2.266,2.266,0,0,0-1.039.29L19.422-74.883a3.013,3.013,0,0,0-2.184,3.515c.868,1.316,1.749,2.2,2.631,2.2h.868l89.512-23.275c1.315-.448,2.631-1.764,2.2-3.081C111.762-96.894,111.078-98,109.973-98Z" transform="translate(23.559 22.441)" fill="#fff" fill-rule="evenodd"/>
      <path id="Path_2036" data-name="Path 2036" d="M26.721-105.995a2.867,2.867,0,0,0-1.977.993,3.35,3.35,0,0,0,0,3.973L81.1-40.074a2.944,2.944,0,0,0,2.173,1.324,2.386,2.386,0,0,0,2.187-1.324,2.7,2.7,0,0,0,0-3.536L28.684-105A2.817,2.817,0,0,0,26.721-105.995Z" transform="translate(33.302 11.228)" fill="#fff" fill-rule="evenodd"/>
      <path id="Path_2037" data-name="Path 2037" d="M45.393-112.995A9.479,9.479,0,0,0,36-103.608c0,5.115,4.274,9.808,9.393,9.808a9.92,9.92,0,0,0,9.815-9.808A9.568,9.568,0,0,0,45.393-112.995Z" transform="translate(49.999 1.41)" fill="#fff" fill-rule="evenodd"/>
      <path id="Path_2038" data-name="Path 2038" d="M40.393-77.994C35.274-77.994,31-73.2,31-66.952c0,5.758,4.274,10.567,9.393,10.567,5.554,0,9.815-4.808,9.815-10.567C50.208-73.2,45.946-77.994,40.393-77.994Z" transform="translate(42.986 50.5)" fill="#fff" fill-rule="evenodd"/>
      <path id="Path_2039" data-name="Path 2039" d="M23.4-91.995c-5.131,0-9.393,4.7-9.393,9.815A9.474,9.474,0,0,0,23.4-72.787a9.579,9.579,0,0,0,9.815-9.393A9.932,9.932,0,0,0,23.4-91.995Z" transform="translate(19.15 30.864)" fill="#fff" fill-rule="evenodd"/>
      <path id="Path_2040" data-name="Path 2040" d="M60.393-102.995A9.479,9.479,0,0,0,51-93.608,9.575,9.575,0,0,0,60.393-83.8a9.929,9.929,0,0,0,9.815-9.808C70.208-98.723,65.511-102.995,60.393-102.995Z" transform="translate(71.037 15.436)" fill="#fff" fill-rule="evenodd"/>
      <path id="Path_2041" data-name="Path 2041" d="M28.393-109.995A9.474,9.474,0,0,0,19-100.6a9.579,9.579,0,0,0,9.393,9.815,9.657,9.657,0,0,0,9.815-9.815A9.563,9.563,0,0,0,28.393-109.995Z" transform="translate(26.155 5.618)" fill="#fff" fill-rule="evenodd"/>
      <path id="Path_2042" data-name="Path 2042" d="M55.393-82.995A9.571,9.571,0,0,0,46-73.18a9.482,9.482,0,0,0,9.393,9.393,9.571,9.571,0,0,0,9.815-9.393A9.65,9.65,0,0,0,55.393-82.995Z" transform="translate(64.024 43.487)" fill="#fff" fill-rule="evenodd"/>
      <path id="Path_2043" data-name="Path 2043" d="M47.225-108.855a7.629,7.629,0,0,1,6.165,3.01,5.171,5.171,0,0,1,.449,5.569c-.449,1.723-1.769,2.572-3.089,3.858a9.193,9.193,0,0,1-3.221.579,7.032,7.032,0,0,1-6.468-3.575c-.884-1.286-.884-3.434-.436-5.145s1.756-2.572,3.525-3.871A7.687,7.687,0,0,1,47.225-108.855ZM46.9-114a11.567,11.567,0,0,0-5.386,1.286c-3.089,1.711-5.729,3.858-6.165,6.868-.449,3.421-.449,6.431.871,9.428,2.2,3.434,6.614,6.444,11.01,6.444A12.725,12.725,0,0,0,52.954-91.7c6.165-2.572,8.369-10.289,4.845-16.3C55.924-111.633,51.41-114,46.9-114Z" transform="translate(48.701)" fill="#fff" fill-rule="evenodd"/>
      <path id="Path_2044" data-name="Path 2044" d="M42.4-72.855c2.254,0,4.508,1.711,6.3,3a7.1,7.1,0,0,1-2.7,9.44,9.892,9.892,0,0,1-3.293.566A7.216,7.216,0,0,1,36.1-63.415a6.916,6.916,0,0,1,3.158-9.016A8.058,8.058,0,0,1,42.4-72.855ZM41.916-78A13.42,13.42,0,0,0,36.1-76.714c-5.844,2.572-8.1,10.289-4.954,16.3,2.254,3.434,6.762,6.431,11.257,6.431A15.15,15.15,0,0,0,48.26-55.7a11.515,11.515,0,0,0,4.954-16.309C51.3-75.646,46.681-78,41.916-78Z" transform="translate(41.194 50.492)" fill="#fff" fill-rule="evenodd"/>
      <path id="Path_2045" data-name="Path 2045" d="M24.8-87.683c2.525,0,3.788.42,5.05,2.115s2.108,2.981,2.108,4.675a6.925,6.925,0,0,1-2.108,4.675,6.084,6.084,0,0,1-4.684,2.229,7.058,7.058,0,0,1-5-2.229,6.845,6.845,0,0,1-2.108-4.675,6.925,6.925,0,0,1,2.108-4.675A6.428,6.428,0,0,1,24.8-87.683Zm-.164-5.312a11.555,11.555,0,0,0-8.257,3.185c-2.538,2.127-3.371,5.1-3.371,8.5a12.672,12.672,0,0,0,3.371,8.5A11.852,11.852,0,0,0,24.8-68.995c3.371,0,5.9-1.694,8.421-3.822,2.942-2.127,3.788-5.1,3.788-8.5a12.253,12.253,0,0,0-3.788-8.5A12.755,12.755,0,0,0,24.633-92.995Z" transform="translate(17.747 29.461)" fill="#fff" fill-rule="evenodd"/>
      <path id="Path_2046" data-name="Path 2046" d="M62.006-98.685a5.194,5.194,0,0,1,4.554,2.128c1.663,1.7,2.072,2.549,2.072,4.678A5.55,5.55,0,0,1,66.56-87.2a5.9,5.9,0,0,1-4.554,2.23,5.918,5.918,0,0,1-4.554-2.23c-1.651-1.275-2.072-2.549-2.072-4.678s.422-2.982,2.072-4.678A5.694,5.694,0,0,1,62.006-98.685ZM61.857-104a11.35,11.35,0,0,0-8.129,3.187,10.848,10.848,0,0,0-3.723,8.5c0,3.4,1.651,5.952,3.723,8.514a10.919,10.919,0,0,0,8.277,3.824c3.313,0,5.8-1.708,8.277-3.824a10.867,10.867,0,0,0,3.735-8.514,12.394,12.394,0,0,0-3.735-8.5A12.416,12.416,0,0,0,61.857-104Z" transform="translate(69.642 14.026)" fill="#fff" fill-rule="evenodd"/>
      <path id="Path_2047" data-name="Path 2047" d="M31.206-105.685a9.831,9.831,0,0,1,5.46,2.128c1.365,1.7,2.28,2.97,2.28,5.1,0,1.708-1.365,3.4-2.28,4.678a8.66,8.66,0,0,1-5.406,1.912A7.383,7.383,0,0,1,26.2-93.781c-1.816-1.7-2.28-2.97-2.28-4.678a6,6,0,0,1,2.28-5.1C28.025-104.831,29.391-105.685,31.206-105.685ZM31.042-111a13.187,13.187,0,0,0-8.941,3.187,11.032,11.032,0,0,0-4.1,8.514c0,3.39,1.816,5.952,4.1,8.5,2.28,2.97,5.924,3.824,9.105,3.824,3.645,0,6.375-1.708,9.105-3.824a10.434,10.434,0,0,0,4.1-8.5c0-2.983-1.816-6.386-4.1-8.514A14.468,14.468,0,0,0,31.042-111Z" transform="translate(24.761 4.208)" fill="#fff" fill-rule="evenodd"/>
      <path id="Path_2048" data-name="Path 2048" d="M57.778-78.216a8.352,8.352,0,0,1,4.832,1.691c2.653,2.975,2.653,7.208,0,9.75a6.994,6.994,0,0,1-4.9,1.907,8.27,8.27,0,0,1-5.228-1.907c-1.32-1.691-2.2-2.962-2.2-4.665a6.868,6.868,0,0,1,2.2-4.665A7.144,7.144,0,0,1,57.778-78.216ZM57.541-84a13.057,13.057,0,0,0-9.016,3.661C45.884-78.216,45-75.254,45-71.86c0,2.975,1.32,5.517,3.525,8.479a12.537,12.537,0,0,0,9.254,3.394c3.076,0,6.6-.852,8.356-3.814,5.294-4.665,5.294-11.873,0-16.538A11.7,11.7,0,0,0,57.541-84Z" transform="translate(62.622 42.077)" fill="#fff" fill-rule="evenodd"/>
      <path id="Path_2050" data-name="Path 2050" d="M134.29-3.52c13.985,5.875,17.518,7.949,18.513,8.367-.068,4.375-9.093,31.438-18.408,55.728C124.8,56.835,71.013,36.592,35.557,21.7,12.078,11.834,5.647,8.252,3.859,6.91c1.91-2.43,5.175-8.1,9.215-14.934C19.711-19.627,32.3-40.49,35.614-43.5,42.607-40.563,102.824-16.738,134.29-3.52Zm1.154-2.748c-33.465-14.058-98.676-39.981-99.17-40.189-2.5-1.05-4.336.53-26.091,36.928C5.821-1.954,1.641,4.517.757,5.907c-.1.247-.522,1.243-.374,1.6C.96,8.925,1.582,10.948,34.546,24.8c34.626,14.546,86.5,34.486,97.972,39.307a16.6,16.6,0,0,1,2.3,1.053c.255.107.605-.036,1.211-.073a2.991,2.991,0,0,0,.772-1.146C158.366,6.3,156.248,3.652,155.359,2.979,155.208,2.625,154.423,1.705,135.444-6.267Z" transform="translate(0 94.441)" fill="#fff" fill-rule="evenodd"/>
      <path id="Path_2052" data-name="Path 2052" d="M146.89-8.714C160.875-2.839,164.407-.765,165.4-.346,165.335,4.029,156.31,31.092,147,55.382,137.4,51.641,83.613,31.4,48.156,16.5,24.678,6.64,18.247,3.058,16.459,1.716c1.91-2.43,5.175-8.1,9.215-14.934,6.636-11.6,19.223-32.467,22.54-35.478C55.206-45.757,115.423-21.932,146.89-8.714Zm1.154-2.748C114.578-25.52,49.368-51.443,48.874-51.65c-2.5-1.05-4.336.53-26.091,36.928C18.421-7.148,14.241-.677,13.357.713c-.1.247-.522,1.243-.374,1.6.577,1.414,1.2,3.437,34.163,17.284,34.626,14.546,86.5,34.486,97.972,39.307a16.605,16.605,0,0,1,2.3,1.053c.255.107.605-.036,1.211-.073a2.99,2.99,0,0,0,.772-1.146C170.966,1.11,168.847-1.542,167.958-2.215,167.808-2.569,167.023-3.489,148.044-11.461Z" transform="translate(17.672 87.156)" fill="#fff" fill-rule="evenodd"/>
    </g>
    <g id="Group_2083" data-name="Group 2083" transform="translate(-2171.352 -24276.908)" opacity="0.479">
      <path id="Path_2032-2" data-name="Path 2032" d="M94.251-66.739a43.866,43.866,0,0,1,3.775,10.063.856.856,0,0,0,.787.813,6,6,0,0,1,2.828.647c.316,0,.943,0,1.1-.487,3.615-4.384,5.345-6.492,6.132-7.3h0a33.561,33.561,0,0,1-2.2,9.577,1.249,1.249,0,0,0,.156,1.3,15.458,15.458,0,0,1,3.144,4.058,2.252,2.252,0,0,0,1.1.321,108.668,108.668,0,0,1,13.047-1.134h.471a92.874,92.874,0,0,1-11.949,6.657.887.887,0,0,0-.627.973,13.437,13.437,0,0,1-.471,5.032c0,.487,0,.813.471,1.134,6.132,4.545,8.489,6.818,9.276,7.791h-.156a54.065,54.065,0,0,1-12.109-2.107.439.439,0,0,0-.325-.141.992.992,0,0,0-.617.3,15.879,15.879,0,0,1-3.46,3.085.985.985,0,0,0-.471.973,42.1,42.1,0,0,1,.943,7.3,57.716,57.716,0,0,1-4.4-5.844c-.316-.487-.627-.487-1.1-.487a32.149,32.149,0,0,1-3.257.3,7.426,7.426,0,0,1-1.461-.136.972.972,0,0,0-.943.647c-2.988,7.791-4.247,10.55-5.034,11.523A62.5,62.5,0,0,1,87.808-26a1.754,1.754,0,0,0-.316-.808,16.043,16.043,0,0,1-3.615-3.737.916.916,0,0,0-.787-.321c-.156,0-.156,0,.156.161-5.656,1.786-9.587,2.92-11.477,3.085,1.258-2.112,5.661-6.657,9.121-9.416a.985.985,0,0,0,.471-.973,22.685,22.685,0,0,1-.156-3.246.891.891,0,0,0-.632-.973,102.292,102.292,0,0,1-9.432-5.523h.627a62.9,62.9,0,0,1,9.908.813,1.172,1.172,0,0,0,1.1-.647l.16-.326a9.2,9.2,0,0,1,1.73-2.6c.471-.321.471-.647.156-1.134a51.539,51.539,0,0,1-2.828-7.3h0a72.624,72.624,0,0,1,5.656,4.706.745.745,0,0,0,.613.389.687.687,0,0,0,.49-.224c1.1-.491,2.2-.978,3.144-1.3.316,0,.632-.487.632-.813A70.971,70.971,0,0,1,94.251-66.739ZM93.94-69.5c-.943,0-2.2,0-3.775,12.17a15.812,15.812,0,0,0-2.357,1.139,27.308,27.308,0,0,0-7.075-5.2,1.615,1.615,0,0,0-1.258.652c-.471.647-.787,1.46,2.673,9.577a21.888,21.888,0,0,0-1.574,2.433,83.256,83.256,0,0,0-9.587-.808,10.22,10.22,0,0,0-2.361.161.922.922,0,0,0-.943.973c-.316.813-.316,1.947,10.69,7.791a12.768,12.768,0,0,0,0,2.438c-3.455,2.759-8.96,8.438-9.747,10.711a1.881,1.881,0,0,0,.16,1.3,2.566,2.566,0,0,0,1.73.487c2.041,0,5.972-.973,12.1-2.92a18.505,18.505,0,0,0,3.144,2.92c-.316,4.871.471,13.635,1.73,15.747a1.694,1.694,0,0,0,1.1.487c1.1,0,2.2,0,6.6-12.175a4.7,4.7,0,0,0,1.2.141,21.7,21.7,0,0,0,2.729-.3c1.725,2.433,4.4,6.166,5.816,6.652a.618.618,0,0,0,.627.326,1.772,1.772,0,0,0,.943-.487c.471-.652.787-1.139-.627-9.251a16.068,16.068,0,0,0,2.988-2.764,54.136,54.136,0,0,0,11.949,2.112,4.275,4.275,0,0,0,1.57-.161c.632-.326,1.1-.652,1.1-1.139,0-.813.156-1.946-10.063-9.9a19,19,0,0,0,.316-4.219c4.713-2.273,11.793-6.166,13.207-7.951a1.053,1.053,0,0,0,.156-1.465c-.316-.808-1.57-.973-3.3-.973a121.921,121.921,0,0,0-12.736,1.3,20.014,20.014,0,0,0-2.833-3.572c1.258-3.406,2.361-9.411,2.046-11.363a1.378,1.378,0,0,0-1.259-.973c-.471,0-1.574,0-7.862,8.117-.471-.161-1.1-.161-1.73-.326-.943-3.893-3.144-9.737-4.558-11.2A1.052,1.052,0,0,0,93.94-69.5Z" transform="translate(94.314 62.417)" fill="#fff" fill-rule="evenodd"/>
      <g id="Group_1956-2" data-name="Group 1956" transform="translate(161.91 -7.081)">
        <path id="Path_2033-2" data-name="Path 2033" d="M26.751,2.761a43.863,43.863,0,0,1,3.775,10.063.856.856,0,0,0,.787.813,6,6,0,0,1,2.828.647c.316,0,.943,0,1.1-.487,3.615-4.384,5.345-6.492,6.132-7.3h0a33.561,33.561,0,0,1-2.2,9.577,1.249,1.249,0,0,0,.156,1.3,15.458,15.458,0,0,1,3.144,4.058,2.253,2.253,0,0,0,1.1.321,108.666,108.666,0,0,1,13.047-1.134H57.1a92.875,92.875,0,0,1-11.949,6.657.887.887,0,0,0-.627.973,13.437,13.437,0,0,1-.471,5.032c0,.487,0,.813.471,1.134,6.132,4.545,8.489,6.818,9.276,7.791h-.156a54.065,54.065,0,0,1-12.109-2.107.439.439,0,0,0-.325-.141.992.992,0,0,0-.617.3,15.878,15.878,0,0,1-3.46,3.085.985.985,0,0,0-.471.973,42.1,42.1,0,0,1,.943,7.3,57.712,57.712,0,0,1-4.4-5.844c-.316-.487-.627-.487-1.1-.487a32.144,32.144,0,0,1-3.257.3,7.425,7.425,0,0,1-1.461-.136.972.972,0,0,0-.943.647c-2.988,7.791-4.247,10.55-5.034,11.523a62.5,62.5,0,0,1-1.1-14.122,1.754,1.754,0,0,0-.316-.808,16.042,16.042,0,0,1-3.615-3.737.916.916,0,0,0-.787-.321c-.156,0-.156,0,.156.161-5.656,1.786-9.587,2.92-11.477,3.085,1.258-2.112,5.661-6.657,9.121-9.416a.985.985,0,0,0,.471-.973,22.684,22.684,0,0,1-.156-3.246.891.891,0,0,0-.632-.973,102.3,102.3,0,0,1-9.432-5.523h.627a62.9,62.9,0,0,1,9.908.813,1.172,1.172,0,0,0,1.1-.647l.16-.326a9.2,9.2,0,0,1,1.73-2.6c.471-.321.471-.647.156-1.134a51.542,51.542,0,0,1-2.828-7.3h0a72.622,72.622,0,0,1,5.656,4.706.745.745,0,0,0,.613.389.687.687,0,0,0,.49-.224c1.1-.491,2.2-.978,3.144-1.3.316,0,.632-.487.632-.813A70.978,70.978,0,0,1,26.751,2.761ZM26.44,0c-.943,0-2.2,0-3.775,12.17a15.814,15.814,0,0,0-2.357,1.139,27.308,27.308,0,0,0-7.075-5.2,1.615,1.615,0,0,0-1.259.652c-.471.647-.787,1.46,2.673,9.577a21.891,21.891,0,0,0-1.574,2.433,83.255,83.255,0,0,0-9.587-.808,10.22,10.22,0,0,0-2.361.161.922.922,0,0,0-.943.973c-.316.813-.316,1.946,10.69,7.791a12.766,12.766,0,0,0,0,2.438c-3.455,2.759-8.96,8.438-9.747,10.711a1.881,1.881,0,0,0,.16,1.3,2.566,2.566,0,0,0,1.73.487c2.041,0,5.972-.973,12.1-2.92a18.505,18.505,0,0,0,3.144,2.92c-.316,4.871.471,13.635,1.73,15.747a1.694,1.694,0,0,0,1.1.487c1.1,0,2.2,0,6.6-12.175a4.7,4.7,0,0,0,1.2.141,21.7,21.7,0,0,0,2.729-.3c1.725,2.433,4.4,6.166,5.816,6.652a.618.618,0,0,0,.627.326,1.772,1.772,0,0,0,.943-.487c.471-.652.787-1.139-.627-9.251A16.069,16.069,0,0,0,41.377,42.2a54.135,54.135,0,0,0,11.949,2.112,4.275,4.275,0,0,0,1.57-.161c.632-.326,1.1-.652,1.1-1.139,0-.813.156-1.946-10.063-9.9a19.006,19.006,0,0,0,.316-4.219c4.713-2.273,11.793-6.166,13.207-7.951a1.053,1.053,0,0,0,.156-1.465c-.316-.808-1.57-.973-3.3-.973a121.929,121.929,0,0,0-12.736,1.3,20.014,20.014,0,0,0-2.833-3.572C42,12.825,43.107,6.82,42.791,4.868A1.378,1.378,0,0,0,41.532,3.9c-.471,0-1.574,0-7.862,8.117-.471-.161-1.1-.161-1.73-.326C31,7.793,28.8,1.949,27.383.489A1.052,1.052,0,0,0,26.44,0Z" transform="translate(-0.096 -0.002)" fill="#fff" stroke="#fff" stroke-linejoin="round" stroke-width="0.75"/>
      </g>
      <path id="Path_2034-2" data-name="Path 2034" d="M50.512-109a2.133,2.133,0,0,0-2.145,2.1L33.006-26.133c0,1.813.95,3.165,3.354,3.612A2.862,2.862,0,0,0,39.24-24.78l14.886-80.77a2.3,2.3,0,0,0-2.39-3.152A2.9,2.9,0,0,0,50.512-109Z" transform="translate(45.799 7.013)" fill="#fff" fill-rule="evenodd"/>
      <path id="Path_2035-2" data-name="Path 2035" d="M109.973-98a2.266,2.266,0,0,0-1.039.29L19.422-74.883a3.013,3.013,0,0,0-2.184,3.515c.868,1.316,1.749,2.2,2.631,2.2h.868l89.512-23.275c1.315-.448,2.631-1.764,2.2-3.081C111.762-96.894,111.078-98,109.973-98Z" transform="translate(23.559 22.441)" fill="#fff" fill-rule="evenodd"/>
      <path id="Path_2036-2" data-name="Path 2036" d="M26.721-105.995a2.867,2.867,0,0,0-1.977.993,3.35,3.35,0,0,0,0,3.973L81.1-40.074a2.944,2.944,0,0,0,2.173,1.324,2.386,2.386,0,0,0,2.187-1.324,2.7,2.7,0,0,0,0-3.536L28.684-105A2.817,2.817,0,0,0,26.721-105.995Z" transform="translate(33.302 11.228)" fill="#fff" fill-rule="evenodd"/>
      <path id="Path_2037-2" data-name="Path 2037" d="M45.393-112.995A9.479,9.479,0,0,0,36-103.608c0,5.115,4.274,9.808,9.393,9.808a9.92,9.92,0,0,0,9.815-9.808A9.568,9.568,0,0,0,45.393-112.995Z" transform="translate(49.999 1.41)" fill="#fff" fill-rule="evenodd"/>
      <path id="Path_2038-2" data-name="Path 2038" d="M40.393-77.994C35.274-77.994,31-73.2,31-66.952c0,5.758,4.274,10.567,9.393,10.567,5.554,0,9.815-4.808,9.815-10.567C50.208-73.2,45.946-77.994,40.393-77.994Z" transform="translate(42.986 50.5)" fill="#fff" fill-rule="evenodd"/>
      <path id="Path_2039-2" data-name="Path 2039" d="M23.4-91.995c-5.131,0-9.393,4.7-9.393,9.815A9.474,9.474,0,0,0,23.4-72.787a9.579,9.579,0,0,0,9.815-9.393A9.932,9.932,0,0,0,23.4-91.995Z" transform="translate(19.15 30.864)" fill="#fff" fill-rule="evenodd"/>
      <path id="Path_2040-2" data-name="Path 2040" d="M60.393-102.995A9.479,9.479,0,0,0,51-93.608,9.575,9.575,0,0,0,60.393-83.8a9.929,9.929,0,0,0,9.815-9.808C70.208-98.723,65.511-102.995,60.393-102.995Z" transform="translate(71.037 15.436)" fill="#fff" fill-rule="evenodd"/>
      <path id="Path_2041-2" data-name="Path 2041" d="M28.393-109.995A9.474,9.474,0,0,0,19-100.6a9.579,9.579,0,0,0,9.393,9.815,9.657,9.657,0,0,0,9.815-9.815A9.563,9.563,0,0,0,28.393-109.995Z" transform="translate(26.155 5.618)" fill="#fff" fill-rule="evenodd"/>
      <path id="Path_2042-2" data-name="Path 2042" d="M55.393-82.995A9.571,9.571,0,0,0,46-73.18a9.482,9.482,0,0,0,9.393,9.393,9.571,9.571,0,0,0,9.815-9.393A9.65,9.65,0,0,0,55.393-82.995Z" transform="translate(64.024 43.487)" fill="#fff" fill-rule="evenodd"/>
      <path id="Path_2043-2" data-name="Path 2043" d="M47.225-108.855a7.629,7.629,0,0,1,6.165,3.01,5.171,5.171,0,0,1,.449,5.569c-.449,1.723-1.769,2.572-3.089,3.858a9.193,9.193,0,0,1-3.221.579,7.032,7.032,0,0,1-6.468-3.575c-.884-1.286-.884-3.434-.436-5.145s1.756-2.572,3.525-3.871A7.687,7.687,0,0,1,47.225-108.855ZM46.9-114a11.567,11.567,0,0,0-5.386,1.286c-3.089,1.711-5.729,3.858-6.165,6.868-.449,3.421-.449,6.431.871,9.428,2.2,3.434,6.614,6.444,11.01,6.444A12.725,12.725,0,0,0,52.954-91.7c6.165-2.572,8.369-10.289,4.845-16.3C55.924-111.633,51.41-114,46.9-114Z" transform="translate(48.701)" fill="#fff" fill-rule="evenodd"/>
      <path id="Path_2044-2" data-name="Path 2044" d="M42.4-72.855c2.254,0,4.508,1.711,6.3,3a7.1,7.1,0,0,1-2.7,9.44,9.892,9.892,0,0,1-3.293.566A7.216,7.216,0,0,1,36.1-63.415a6.916,6.916,0,0,1,3.158-9.016A8.058,8.058,0,0,1,42.4-72.855ZM41.916-78A13.42,13.42,0,0,0,36.1-76.714c-5.844,2.572-8.1,10.289-4.954,16.3,2.254,3.434,6.762,6.431,11.257,6.431A15.15,15.15,0,0,0,48.26-55.7a11.515,11.515,0,0,0,4.954-16.309C51.3-75.646,46.681-78,41.916-78Z" transform="translate(41.194 50.492)" fill="#fff" fill-rule="evenodd"/>
      <path id="Path_2045-2" data-name="Path 2045" d="M24.8-87.683c2.525,0,3.788.42,5.05,2.115s2.108,2.981,2.108,4.675a6.925,6.925,0,0,1-2.108,4.675,6.084,6.084,0,0,1-4.684,2.229,7.058,7.058,0,0,1-5-2.229,6.845,6.845,0,0,1-2.108-4.675,6.925,6.925,0,0,1,2.108-4.675A6.428,6.428,0,0,1,24.8-87.683Zm-.164-5.312a11.555,11.555,0,0,0-8.257,3.185c-2.538,2.127-3.371,5.1-3.371,8.5a12.672,12.672,0,0,0,3.371,8.5A11.852,11.852,0,0,0,24.8-68.995c3.371,0,5.9-1.694,8.421-3.822,2.942-2.127,3.788-5.1,3.788-8.5a12.253,12.253,0,0,0-3.788-8.5A12.755,12.755,0,0,0,24.633-92.995Z" transform="translate(17.747 29.461)" fill="#fff" fill-rule="evenodd"/>
      <path id="Path_2046-2" data-name="Path 2046" d="M62.006-98.685a5.194,5.194,0,0,1,4.554,2.128c1.663,1.7,2.072,2.549,2.072,4.678A5.55,5.55,0,0,1,66.56-87.2a5.9,5.9,0,0,1-4.554,2.23,5.918,5.918,0,0,1-4.554-2.23c-1.651-1.275-2.072-2.549-2.072-4.678s.422-2.982,2.072-4.678A5.694,5.694,0,0,1,62.006-98.685ZM61.857-104a11.35,11.35,0,0,0-8.129,3.187,10.848,10.848,0,0,0-3.723,8.5c0,3.4,1.651,5.952,3.723,8.514a10.919,10.919,0,0,0,8.277,3.824c3.313,0,5.8-1.708,8.277-3.824a10.867,10.867,0,0,0,3.735-8.514,12.394,12.394,0,0,0-3.735-8.5A12.416,12.416,0,0,0,61.857-104Z" transform="translate(69.642 14.026)" fill="#fff" fill-rule="evenodd"/>
      <path id="Path_2047-2" data-name="Path 2047" d="M31.206-105.685a9.831,9.831,0,0,1,5.46,2.128c1.365,1.7,2.28,2.97,2.28,5.1,0,1.708-1.365,3.4-2.28,4.678a8.66,8.66,0,0,1-5.406,1.912A7.383,7.383,0,0,1,26.2-93.781c-1.816-1.7-2.28-2.97-2.28-4.678a6,6,0,0,1,2.28-5.1C28.025-104.831,29.391-105.685,31.206-105.685ZM31.042-111a13.187,13.187,0,0,0-8.941,3.187,11.032,11.032,0,0,0-4.1,8.514c0,3.39,1.816,5.952,4.1,8.5,2.28,2.97,5.924,3.824,9.105,3.824,3.645,0,6.375-1.708,9.105-3.824a10.434,10.434,0,0,0,4.1-8.5c0-2.983-1.816-6.386-4.1-8.514A14.468,14.468,0,0,0,31.042-111Z" transform="translate(24.761 4.208)" fill="#fff" fill-rule="evenodd"/>
      <path id="Path_2048-2" data-name="Path 2048" d="M57.778-78.216a8.352,8.352,0,0,1,4.832,1.691c2.653,2.975,2.653,7.208,0,9.75a6.994,6.994,0,0,1-4.9,1.907,8.27,8.27,0,0,1-5.228-1.907c-1.32-1.691-2.2-2.962-2.2-4.665a6.868,6.868,0,0,1,2.2-4.665A7.144,7.144,0,0,1,57.778-78.216ZM57.541-84a13.057,13.057,0,0,0-9.016,3.661C45.884-78.216,45-75.254,45-71.86c0,2.975,1.32,5.517,3.525,8.479a12.537,12.537,0,0,0,9.254,3.394c3.076,0,6.6-.852,8.356-3.814,5.294-4.665,5.294-11.873,0-16.538A11.7,11.7,0,0,0,57.541-84Z" transform="translate(62.622 42.077)" fill="#fff" fill-rule="evenodd"/>
      <path id="Path_2050-2" data-name="Path 2050" d="M134.29-3.52c13.985,5.875,17.518,7.949,18.513,8.367-.068,4.375-9.093,31.438-18.408,55.728C124.8,56.835,71.013,36.592,35.557,21.7,12.078,11.834,5.647,8.252,3.859,6.91c1.91-2.43,5.175-8.1,9.215-14.934C19.711-19.627,32.3-40.49,35.614-43.5,42.607-40.563,102.824-16.738,134.29-3.52Zm1.154-2.748c-33.465-14.058-98.676-39.981-99.17-40.189-2.5-1.05-4.336.53-26.091,36.928C5.821-1.954,1.641,4.517.757,5.907c-.1.247-.522,1.243-.374,1.6C.96,8.925,1.582,10.948,34.546,24.8c34.626,14.546,86.5,34.486,97.972,39.307a16.6,16.6,0,0,1,2.3,1.053c.255.107.605-.036,1.211-.073a2.991,2.991,0,0,0,.772-1.146C158.366,6.3,156.248,3.652,155.359,2.979,155.208,2.625,154.423,1.705,135.444-6.267Z" transform="translate(0 94.441)" fill="#fff" fill-rule="evenodd"/>
      <path id="Path_2052-2" data-name="Path 2052" d="M146.89-8.714C160.875-2.839,164.407-.765,165.4-.346,165.335,4.029,156.31,31.092,147,55.382,137.4,51.641,83.613,31.4,48.156,16.5,24.678,6.64,18.247,3.058,16.459,1.716c1.91-2.43,5.175-8.1,9.215-14.934,6.636-11.6,19.223-32.467,22.54-35.478C55.206-45.757,115.423-21.932,146.89-8.714Zm1.154-2.748C114.578-25.52,49.368-51.443,48.874-51.65c-2.5-1.05-4.336.53-26.091,36.928C18.421-7.148,14.241-.677,13.357.713c-.1.247-.522,1.243-.374,1.6.577,1.414,1.2,3.437,34.163,17.284,34.626,14.546,86.5,34.486,97.972,39.307a16.605,16.605,0,0,1,2.3,1.053c.255.107.605-.036,1.211-.073a2.99,2.99,0,0,0,.772-1.146C170.966,1.11,168.847-1.542,167.958-2.215,167.808-2.569,167.023-3.489,148.044-11.461Z" transform="translate(17.672 87.156)" fill="#fff" fill-rule="evenodd"/>
    </g>
  </g>
</svg>
