<svg width="37" height="36" viewBox="0 0 37 36" fill="none" xmlns="http://www.w3.org/2000/svg">
<path d="M20.38 14.9995H32.5552C34.7467 14.9995 36.5253 16.7678 36.5253 18.9467V31.8408C36.5253 34.0196 34.7467 35.7879 32.5552 35.7879H20.38C18.1884 35.7879 16.4098 34.0196 16.4098 31.8408V18.9467C16.4098 16.7678 18.1884 14.9995 20.38 14.9995Z" fill="#E5284C"/>
<path d="M3.97017 9.99951H16.1454C18.3369 9.99951 20.1155 11.7678 20.1155 13.9467V26.8408C20.1155 29.0196 18.3369 30.7879 16.1454 30.7879H3.97017C1.77864 30.7879 0 29.0196 0 26.8408V13.9467C0 11.7678 1.77864 9.99951 3.97017 9.99951Z" fill="#FC842B"/>
<path d="M16.4097 0H28.5849C30.7765 0 32.5551 1.76833 32.5551 3.94717V16.8413C32.5551 19.0201 30.7765 20.7884 28.5849 20.7884H16.4097C14.2182 20.7884 12.4396 19.0201 12.4396 16.8413V3.94717C12.4396 1.76833 14.2182 0 16.4097 0Z" fill="#F2C051"/>
</svg>
