<svg width="163" height="54" viewBox="0 0 163 54" fill="none" xmlns="http://www.w3.org/2000/svg">
<path d="M163 22.1977C163 24.0082 161.586 25.4247 159.741 25.4247C157.915 25.4247 156.463 24.0082 156.463 22.1977C156.463 20.4254 157.921 19.0088 159.741 19.0088C161.58 19.0025 163 20.4254 163 22.1977ZM157.275 22.1977C157.275 23.6143 158.321 24.745 159.76 24.745C161.161 24.745 162.188 23.6143 162.188 22.2168C162.188 20.8002 161.161 19.6504 159.741 19.6504C158.321 19.6504 157.275 20.7938 157.275 22.1977ZM159.234 23.8684H158.492V20.6795C158.784 20.6223 159.19 20.5842 159.716 20.5842C160.318 20.5842 160.591 20.6795 160.819 20.8192C160.996 20.9526 161.13 21.2067 161.13 21.518C161.13 21.8674 160.857 22.1406 160.47 22.2549V22.293C160.781 22.4074 160.952 22.6424 161.054 23.0744C161.149 23.5571 161.212 23.7541 161.288 23.8684H160.496C160.401 23.7541 160.343 23.4619 160.242 23.0934C160.185 22.744 159.988 22.5852 159.583 22.5852H159.234V23.8684ZM159.253 22.058H159.602C160.007 22.058 160.337 21.9246 160.337 21.5942C160.337 21.302 160.122 21.1115 159.659 21.1115C159.462 21.1115 159.329 21.1305 159.253 21.1496V22.058V22.058Z" fill="#231F20"/>
<path d="M3.01818 31.6842C3.01818 33.0945 3.28447 34.4221 3.81704 35.6735C4.34962 36.925 5.05972 38.0112 5.95368 38.9323C6.84765 39.8534 7.90012 40.584 9.11743 41.1303C10.3347 41.6766 11.6218 41.9497 12.9913 41.9497C13.993 41.9497 14.9567 41.8036 15.8824 41.5178C16.8017 41.2319 17.664 40.819 18.4565 40.2854C19.249 39.7518 19.9591 39.1165 20.5741 38.3797C21.1891 37.6428 21.69 36.8297 22.0831 35.934H23.7569C23.3385 37.052 22.7742 38.0747 22.0641 39.0086C21.354 39.9424 20.5298 40.7428 19.5914 41.4161C18.6531 42.0895 17.626 42.6167 16.4911 43.0042C15.3625 43.3917 14.1832 43.5823 12.9532 43.5823C11.3619 43.5823 9.85924 43.2647 8.45172 42.6358C7.0442 42.0069 5.8142 41.1557 4.76807 40.0758C3.72194 39.0022 2.89138 37.7381 2.27638 36.2961C1.66139 34.8477 1.35706 33.3104 1.35706 31.6779C1.35706 30.0453 1.66139 28.5017 2.27638 27.0597C2.89138 25.6113 3.72194 24.3535 4.76807 23.2736C5.8142 22.1937 7.0442 21.3488 8.45172 20.7136C9.85924 20.0847 11.3619 19.7671 12.9532 19.7671C14.4051 19.7671 15.781 20.0275 17.0807 20.5421C18.3804 21.0566 19.5343 21.7681 20.5551 22.6701C21.5759 23.5722 22.4191 24.6457 23.0912 25.8972C23.7632 27.1422 24.2071 28.4826 24.429 29.9182H3.13864C3.05622 30.5154 3.01818 31.1061 3.01818 31.6842ZM12.9786 21.3997C11.8881 21.3997 10.8483 21.5712 9.85924 21.9206C8.87017 22.2699 7.96352 22.74 7.1393 23.3499C6.31508 23.9533 5.59864 24.6839 4.98364 25.5351C4.36864 26.3863 3.89313 27.3011 3.5571 28.2793H22.3557C22.0197 27.3011 21.5442 26.3863 20.9292 25.5351C20.3142 24.6839 19.5977 23.9597 18.7735 23.3499C17.9493 22.7464 17.049 22.2699 16.0726 21.9206C15.1026 21.5775 14.0691 21.3997 12.9786 21.3997Z" fill="#231F20" stroke="black" stroke-width="1.60606" stroke-miterlimit="10"/>
<path d="M45.098 29.3952C45.098 28.3343 44.9014 27.3243 44.5147 26.365C44.1216 25.4058 43.5763 24.5737 42.8789 23.8749C42.1815 23.1761 41.3699 22.6171 40.4506 22.1979C39.5313 21.785 38.5549 21.5753 37.5215 21.5753C36.488 21.5753 35.5116 21.7659 34.5923 22.1534C33.673 22.5409 32.8678 23.0745 32.183 23.7669C31.4983 24.453 30.953 25.2597 30.5473 26.1745C30.1415 27.0892 29.9386 28.0675 29.9386 29.0966V42.4684H28.1824V20.9719H29.9386V23.894C30.8326 22.6044 31.9421 21.5944 33.2672 20.8639C34.5923 20.1333 36.0125 19.7649 37.5151 19.7649C38.7958 19.7649 40.0068 20.019 41.1354 20.5145C42.2639 21.0163 43.2593 21.7024 44.1089 22.579C44.9585 23.4556 45.6306 24.4784 46.1187 25.6536C46.6069 26.8288 46.8542 28.0738 46.8542 29.3952V42.4621H45.098V29.3952V29.3952Z" fill="#231F20" stroke="black" stroke-width="1.60606" stroke-miterlimit="10"/>
<path d="M54.2215 46.6356C55.1155 48.0713 56.3075 49.1702 57.8037 49.9452C59.2937 50.7202 60.828 51.1077 62.3877 51.1077C64.0932 51.1077 65.5705 50.7837 66.8258 50.1421C68.0812 49.4942 69.121 48.6811 69.9452 47.6901C70.7694 46.6991 71.3844 45.6256 71.7902 44.4631C72.1959 43.3006 72.3988 42.208 72.3988 41.1725V37.774C71.3654 39.5209 69.9769 40.9248 68.2333 41.9856C66.4898 43.0465 64.556 43.5737 62.4321 43.5737C60.8407 43.5737 59.3381 43.2561 57.9305 42.6272C56.523 41.9984 55.293 41.1471 54.2469 40.0672C53.2008 38.9937 52.3702 37.7295 51.7552 36.2875C51.1402 34.8392 50.8359 33.3019 50.8359 31.6693C50.8359 30.0368 51.1402 28.4931 51.7552 27.0511C52.3702 25.6028 53.2008 24.345 54.2469 23.2651C55.293 22.1852 56.523 21.3403 57.9305 20.7051C59.3381 20.0762 60.8407 19.7585 62.4321 19.7585C64.556 19.7585 66.4834 20.2921 68.2333 21.3466C69.9769 22.4075 71.3654 23.8114 72.3988 25.5583V20.9719H73.9902V41.1725C73.9902 42.8623 73.6732 44.4186 73.0455 45.8352C72.4179 47.2518 71.5683 48.4715 70.4904 49.4878C69.4126 50.5042 68.1826 51.2983 66.7878 51.8764C65.3929 52.4481 63.9283 52.7339 62.394 52.7339C60.4983 52.7339 58.704 52.2893 57.0112 51.3999C55.3247 50.5106 53.9869 49.3354 53.0106 47.8743L54.2215 46.6356ZM52.4209 31.6503C52.4209 33.0859 52.6809 34.4263 53.1944 35.6777C53.708 36.9291 54.4244 38.009 55.3311 38.9301C56.2377 39.8512 57.2902 40.5818 58.4948 41.1281C59.6931 41.6744 60.9928 41.9475 62.3877 41.9475C63.7572 41.9475 65.0506 41.6744 66.2806 41.1281C67.5106 40.5818 68.5694 39.8512 69.4633 38.9301C70.3573 38.009 71.0674 36.9291 71.6 35.6777C72.1325 34.4263 72.3988 33.0859 72.3988 31.6503C72.3988 30.24 72.1325 28.9124 71.6 27.6673C71.0674 26.4159 70.3573 25.3296 69.4633 24.3958C68.5694 23.462 67.5106 22.7315 66.2806 22.1979C65.0506 21.6643 63.7508 21.3975 62.3877 21.3975C60.9928 21.3975 59.6931 21.6643 58.4948 22.1979C57.2965 22.7315 56.2377 23.462 55.3311 24.3958C54.4244 25.3296 53.7143 26.4222 53.1944 27.6673C52.6809 28.9187 52.4209 30.2464 52.4209 31.6503Z" fill="#231F20" stroke="black" stroke-width="1.60606" stroke-miterlimit="10"/>
<path d="M78.2126 31.6757C78.2126 30.0431 78.517 28.4995 79.132 27.0575C79.747 25.6091 80.5712 24.3513 81.6173 23.2714C82.6635 22.1915 83.8871 21.3466 85.2946 20.7114C86.7022 20.0825 88.1984 19.7649 89.7898 19.7649C91.3749 19.7649 92.8775 20.0825 94.285 20.7114C95.6925 21.3403 96.9162 22.1915 97.9623 23.2714C99.0085 24.345 99.839 25.6091 100.448 27.0575C101.063 28.5058 101.367 30.0431 101.367 31.6757V42.4684H99.7756V37.7803C98.7422 39.5273 97.3537 40.9311 95.6101 41.992C93.8666 43.0528 91.9328 43.5801 89.8088 43.5801C88.2175 43.5801 86.7148 43.2625 85.3073 42.6336C83.8998 42.0047 82.6698 41.1535 81.6237 40.0736C80.5775 39 79.747 37.7359 79.132 36.2939C78.5233 34.8455 78.2126 33.3082 78.2126 31.6757ZM79.804 31.6947C79.804 33.1304 80.064 34.4644 80.5775 35.7031C81.0911 36.9355 81.8075 38.0217 82.7142 38.9555C83.6208 39.8893 84.6733 40.6199 85.8779 41.1535C87.0762 41.6871 88.376 41.9475 89.7708 41.9475C91.1403 41.9475 92.4337 41.6807 93.6637 41.1535C94.8937 40.6199 95.9525 39.8893 96.8465 38.9555C97.7404 38.0217 98.4505 36.9355 98.9831 35.7031C99.5157 34.4707 99.782 33.1304 99.782 31.6947C99.782 30.2845 99.5157 28.9505 98.9831 27.6864C98.4505 26.4222 97.7404 25.3296 96.8465 24.4149C95.9525 23.4938 94.8937 22.7632 93.6637 22.2169C92.4337 21.6706 91.1339 21.3975 89.7708 21.3975C88.376 21.3975 87.0762 21.6706 85.8779 22.2169C84.6796 22.7632 83.6208 23.4938 82.7142 24.4149C81.8075 25.336 81.0974 26.4222 80.5775 27.6864C80.064 28.9505 79.804 30.2845 79.804 31.6947Z" fill="#231F20" stroke="black" stroke-width="1.60606" stroke-miterlimit="10"/>
<path d="M108.36 46.6356C109.254 48.0713 110.446 49.1702 111.942 49.9452C113.432 50.7202 114.967 51.1077 116.526 51.1077C118.232 51.1077 119.709 50.7837 120.964 50.1421C122.22 49.5006 123.26 48.6811 124.084 47.6901C124.908 46.6991 125.523 45.6256 125.929 44.4631C126.335 43.3006 126.537 42.208 126.537 41.1725V37.774C125.504 39.5209 124.116 40.9248 122.372 41.9856C120.628 43.0465 118.695 43.5737 116.571 43.5737C114.979 43.5737 113.477 43.2561 112.069 42.6272C110.662 41.9984 109.432 41.1471 108.386 40.0672C107.339 38.9937 106.509 37.7295 105.894 36.2875C105.279 34.8392 104.975 33.3019 104.975 31.6693C104.975 30.0368 105.279 28.4931 105.894 27.0511C106.509 25.6028 107.339 24.345 108.386 23.2651C109.432 22.1852 110.662 21.3403 112.069 20.7051C113.477 20.0762 114.979 19.7585 116.571 19.7585C118.695 19.7585 120.622 20.2921 122.372 21.3466C124.116 22.4075 125.504 23.8114 126.537 25.5583V20.9719H128.129V41.1725C128.129 42.8623 127.812 44.4186 127.184 45.8352C126.557 47.2518 125.707 48.4715 124.629 49.4878C123.551 50.5042 122.321 51.2983 120.926 51.8764C119.532 52.4481 118.067 52.7339 116.533 52.7339C114.637 52.7339 112.843 52.2893 111.15 51.3999C109.463 50.5106 108.126 49.3354 107.149 47.8743L108.36 46.6356ZM106.56 31.6503C106.56 33.0859 106.82 34.4263 107.333 35.6777C107.847 36.9291 108.563 38.009 109.47 38.9301C110.376 39.8512 111.429 40.5818 112.633 41.1281C113.832 41.6744 115.131 41.9475 116.526 41.9475C117.896 41.9475 119.189 41.6744 120.419 41.1281C121.649 40.5818 122.708 39.8512 123.602 38.9301C124.496 38.009 125.206 36.9291 125.739 35.6777C126.271 34.4263 126.531 33.0859 126.531 31.6503C126.531 30.24 126.265 28.9124 125.739 27.6673C125.206 26.4159 124.496 25.3296 123.602 24.3958C122.708 23.462 121.649 22.7315 120.419 22.1979C119.189 21.6643 117.889 21.3975 116.526 21.3975C115.131 21.3975 113.832 21.6643 112.633 22.1979C111.435 22.7315 110.376 23.462 109.47 24.3958C108.563 25.3296 107.853 26.4222 107.333 27.6673C106.82 28.9187 106.56 30.2464 106.56 31.6503Z" fill="#231F20" stroke="black" stroke-width="1.60606" stroke-miterlimit="10"/>
<path d="M133.822 31.682C133.822 33.0923 134.089 34.4199 134.615 35.6713C135.147 36.9228 135.858 38.009 136.751 38.9301C137.645 39.8512 138.698 40.5818 139.915 41.1281C141.133 41.6744 142.42 41.9475 143.789 41.9475C144.791 41.9475 145.755 41.8014 146.68 41.5156C147.6 41.2297 148.462 40.8168 149.254 40.2832C150.053 39.7496 150.757 39.1143 151.372 38.3775C151.987 37.6406 152.488 36.8275 152.881 35.9318H154.555C154.136 37.0498 153.572 38.0725 152.862 39.0064C152.152 39.9402 151.328 40.7406 150.389 41.4139C149.451 42.0873 148.424 42.6145 147.289 43.002C146.16 43.3895 144.981 43.5801 143.751 43.5801C142.16 43.5801 140.657 43.2625 139.25 42.6336C137.842 42.0047 136.612 41.1535 135.566 40.0736C134.52 39 133.689 37.7359 133.074 36.2939C132.459 34.8455 132.155 33.3082 132.155 31.6757C132.155 30.0431 132.459 28.4995 133.074 27.0575C133.689 25.6091 134.52 24.3513 135.566 23.2714C136.612 22.1979 137.842 21.3466 139.25 20.7114C140.657 20.0825 142.16 19.7649 143.751 19.7649C145.203 19.7649 146.579 20.0253 147.878 20.5399C149.178 21.0544 150.332 21.7659 151.353 22.6679C152.374 23.57 153.217 24.6435 153.889 25.895C154.561 27.14 155.005 28.4804 155.227 29.916H133.955C133.86 30.5132 133.822 31.104 133.822 31.682ZM143.783 21.3975C142.692 21.3975 141.652 21.569 140.663 21.9184C139.674 22.2677 138.768 22.7378 137.943 23.3477C137.119 23.9511 136.403 24.6817 135.788 25.5329C135.173 26.3841 134.697 27.2989 134.361 28.2771H153.16C152.824 27.2989 152.348 26.3841 151.733 25.5329C151.118 24.6817 150.402 23.9575 149.578 23.3477C148.753 22.7442 147.853 22.2677 146.877 21.9184C145.907 21.5753 144.873 21.3975 143.783 21.3975Z" fill="#231F20" stroke="black" stroke-width="1.60606" stroke-miterlimit="10"/>
<path d="M2.39001 0H3.72243V5.3409C4.07739 4.76836 4.63594 4.28874 5.39701 3.90099C6.15809 3.51324 6.90104 3.31884 7.62375 3.31884C8.34752 3.31884 9.02545 3.45556 9.66075 3.72902C10.295 4.00247 10.8503 4.3774 11.3257 4.85488C11.8022 5.33129 12.1753 5.88781 12.4492 6.52338C12.7221 7.16001 12.8585 7.83937 12.8585 8.56467C12.8585 9.28996 12.7221 9.97039 12.4492 10.606C12.1764 11.2426 11.8022 11.7981 11.3257 12.2755C10.8503 12.7519 10.295 13.1279 9.66075 13.4014C9.02545 13.6738 8.34752 13.8116 7.62375 13.8116C6.90104 13.8116 6.22205 13.6748 5.58675 13.4014C4.95145 13.1279 4.39717 12.753 3.92176 12.2755C3.44529 11.7981 3.07115 11.2426 2.79827 10.606C2.52645 9.97039 2.39001 9.28996 2.39001 8.56467V0ZM3.72243 8.56467C3.72243 9.09876 3.8237 9.60401 4.02729 10.0815C4.22982 10.5579 4.50909 10.9745 4.86511 11.3313C5.22007 11.687 5.63578 11.9679 6.11225 12.1708C6.58766 12.3749 7.09291 12.4763 7.62481 12.4763C8.15778 12.4763 8.66197 12.3749 9.13844 12.1708C9.61491 11.9679 10.0296 11.688 10.3856 11.3313C10.7405 10.9756 11.0198 10.559 11.2234 10.0815C11.4259 9.60401 11.5283 9.09876 11.5283 8.56467C11.5283 8.03058 11.4259 7.52533 11.2234 7.04892C11.0198 6.57144 10.7405 6.15592 10.3856 5.79915C10.0296 5.44345 9.61491 5.16358 9.13844 4.95956C8.66303 4.75661 8.15778 4.65406 7.62481 4.65406C7.09185 4.65406 6.58766 4.75554 6.11225 4.95956C5.63685 5.16358 5.22007 5.44345 4.86511 5.79915C4.50909 6.15485 4.22982 6.57144 4.02729 7.04892C3.8237 7.52533 3.72243 8.03058 3.72243 8.56467Z" fill="black"/>
<path d="M13.83 0.801135C13.83 0.572544 13.9056 0.38134 14.0581 0.22859C14.2105 0.0758408 14.4002 0 14.6294 0C14.8575 0 15.0483 0.0758408 15.1997 0.22859C15.3521 0.38134 15.4278 0.571476 15.4278 0.801135C15.4278 1.02973 15.3521 1.22093 15.1997 1.37368C15.0473 1.52643 14.8575 1.60227 14.6294 1.60227C14.4013 1.60227 14.2105 1.52536 14.0581 1.37368C13.9067 1.22093 13.83 1.02973 13.83 0.801135ZM13.9451 3.81447H15.2775V13.3522H13.9451V3.81447Z" fill="black"/>
<path d="M16.3984 8.56468C16.3984 7.84046 16.5349 7.16002 16.8078 6.52339C17.0806 5.88782 17.4548 5.3313 17.9313 4.85489C18.4067 4.37741 18.962 4.00355 19.5962 3.72903C20.2305 3.45557 20.9095 3.31885 21.6332 3.31885C22.357 3.31885 23.0349 3.45557 23.6702 3.72903C24.3045 4.00248 24.8598 4.37741 25.3352 4.85489C25.8106 5.3313 26.1848 5.88782 26.4587 6.52339C26.7316 7.16002 26.868 7.83939 26.868 8.56468C26.868 9.28998 26.7316 9.97041 26.4587 10.606C26.1858 11.2426 25.8117 11.7981 25.3352 12.2755C24.8598 12.7519 24.3045 13.1279 23.6702 13.4014C23.036 13.6738 22.357 13.8116 21.6332 13.8116C20.9105 13.8116 20.2315 13.6749 19.5962 13.4014C18.9609 13.1279 18.4067 12.753 17.9313 12.2755C17.4558 11.7981 17.0806 11.2426 16.8078 10.606C16.5349 9.97041 16.3984 9.28998 16.3984 8.56468ZM17.7309 8.56468C17.7309 9.09877 17.8321 9.60402 18.0357 10.0815C18.2382 10.5579 18.5175 10.9745 18.8735 11.3313C19.2285 11.687 19.6442 11.9679 20.1207 12.1709C20.5961 12.3749 21.1013 12.4764 21.6332 12.4764C22.1662 12.4764 22.6704 12.3749 23.1469 12.1709C23.6223 11.9679 24.038 11.688 24.394 11.3313C24.749 10.9756 25.0282 10.559 25.2318 10.0815C25.4344 9.60402 25.5367 9.09877 25.5367 8.56468C25.5367 8.03059 25.4344 7.52534 25.2318 7.04893C25.0282 6.57146 24.749 6.15593 24.394 5.79916C24.038 5.44346 23.6233 5.1636 23.1469 4.95957C22.6715 4.75662 22.1662 4.65407 21.6332 4.65407C21.1003 4.65407 20.5961 4.75555 20.1207 4.95957C19.6453 5.1636 19.2285 5.44346 18.8735 5.79916C18.5175 6.15487 18.2382 6.57146 18.0357 7.04893C17.8321 7.52534 17.7309 8.03059 17.7309 8.56468Z" fill="black"/>
<path d="M29.2298 8.56483C29.2298 9.09892 29.3311 9.60417 29.5347 10.0816C29.7372 10.5581 30.0165 10.9746 30.3725 11.3314C30.7275 11.6871 31.1432 11.9681 31.6197 12.171C32.0951 12.375 32.6003 12.4765 33.1322 12.4765C33.6652 12.4765 34.1694 12.375 34.6459 12.171C35.1213 11.9681 35.537 11.6882 35.893 11.3314C36.1467 11.0772 36.362 10.7845 36.54 10.4544H38.0057L37.9481 10.6072C37.6816 11.2438 37.3107 11.7993 36.8342 12.2768C36.3588 12.7532 35.8035 13.1292 35.1682 13.4026C34.5339 13.675 33.8549 13.8128 33.1312 13.8128C32.4085 13.8128 31.7295 13.6761 31.0942 13.4026C30.4589 13.1292 29.9046 12.7542 29.4292 12.2768C28.9538 11.7993 28.5786 11.2438 28.3057 10.6072C28.0328 9.97163 27.8964 9.2912 27.8964 8.5659C27.8964 7.84167 28.0328 7.16124 28.3057 6.52461C28.5786 5.88904 28.9527 5.33252 29.4292 4.85611C29.9046 4.37863 30.4599 4.00477 31.0942 3.73025C31.7284 3.4568 32.4074 3.32007 33.1312 3.32007C33.8549 3.32007 34.5329 3.4568 35.1682 3.73025C35.8024 4.0037 36.3577 4.37863 36.8342 4.85611C37.3096 5.33252 37.6816 5.88904 37.9481 6.52461L38.0057 6.65813H36.5208C36.3556 6.33981 36.1467 6.05461 35.893 5.79931C35.537 5.44361 35.1223 5.16375 34.6459 4.95972C34.1704 4.75677 33.6652 4.65423 33.1322 4.65423C32.5993 4.65423 32.0951 4.7557 31.6197 4.95972C31.1443 5.16375 30.7275 5.44361 30.3725 5.79931C30.0165 6.15502 29.7372 6.57161 29.5347 7.04908C29.3311 7.52549 29.2298 8.03074 29.2298 8.56483Z" fill="black"/>
<path d="M38.918 8.56468C38.918 7.84046 39.0545 7.16002 39.3273 6.52339C39.6002 5.88782 39.9754 5.3313 40.4508 4.85489C40.9273 4.37741 41.4816 4.00355 42.1158 3.72903C42.7511 3.45557 43.4301 3.31885 44.1528 3.31885C44.8766 3.31885 45.5545 3.45557 46.1898 3.72903C46.8241 4.00248 47.3794 4.37741 47.8548 4.85489C48.3302 5.3313 48.7054 5.88782 48.9783 6.52339C49.2512 7.16002 49.3876 7.83939 49.3876 8.56468C49.3876 9.28998 49.2512 9.97041 48.9783 10.606C48.7054 11.2426 48.3302 11.7981 47.8548 12.2755C47.3805 12.7519 46.8241 13.1279 46.1898 13.4014C45.5545 13.6738 44.8766 13.8116 44.1528 13.8116C43.4301 13.8116 42.7511 13.6749 42.1158 13.4014C41.4816 13.1279 40.9273 12.753 40.4508 12.2755C39.9754 11.7981 39.6002 11.2426 39.3273 10.606C39.0545 9.97041 38.918 9.28998 38.918 8.56468ZM40.2504 8.56468C40.2504 9.09877 40.3517 9.60402 40.5542 10.0815C40.7578 10.5579 41.036 10.9745 41.3921 11.3313C41.747 11.687 42.1627 11.9679 42.6392 12.1709C43.1157 12.3749 43.6188 12.4764 44.1518 12.4764C44.6847 12.4764 45.1889 12.3749 45.6643 12.1709C46.1397 11.9679 46.5554 11.688 46.9115 11.3313C47.2664 10.9756 47.5457 10.559 47.7493 10.0815C47.9529 9.60402 48.0541 9.09877 48.0541 8.56468C48.0541 8.03059 47.9518 7.52534 47.7493 7.04893C47.5457 6.57146 47.2664 6.15593 46.9115 5.79916C46.5554 5.44346 46.1408 5.1636 45.6643 4.95957C45.1889 4.75662 44.6847 4.65407 44.1518 4.65407C43.6188 4.65407 43.1157 4.75555 42.6392 4.95957C42.1638 5.1636 41.747 5.44346 41.3921 5.79916C41.036 6.15487 40.7578 6.57146 40.5542 7.04893C40.3517 7.52534 40.2504 8.03059 40.2504 8.56468Z" fill="black"/>
<path d="M57.8179 7.63002C57.8179 7.22305 57.7411 6.84171 57.5887 6.486C57.4374 6.1303 57.2274 5.81839 56.9609 5.55134C56.6933 5.2843 56.3831 5.07387 56.0282 4.92219C55.6722 4.76944 55.2991 4.6936 54.9047 4.6936C54.5114 4.6936 54.1372 4.77585 53.7823 4.94141C53.4262 5.10698 53.1161 5.32596 52.8496 5.59941C52.582 5.87287 52.3699 6.18798 52.2121 6.54368C52.0523 6.90046 51.9744 7.26257 51.9744 7.63109L51.9936 13.3533H50.642V3.81448H51.9744V4.69253C52.1013 4.48957 52.2718 4.30157 52.4882 4.1296C52.7035 3.95762 52.9412 3.81235 53.2024 3.69057C53.4614 3.56987 53.7375 3.47801 54.0296 3.41392C54.3216 3.34982 54.6137 3.31885 54.9047 3.31885C55.4888 3.31885 56.041 3.43314 56.5612 3.66173C57.0813 3.89032 57.5344 4.19903 57.9213 4.58678C58.3082 4.97453 58.6163 5.43278 58.8455 5.96046C59.0736 6.48814 59.1876 7.04466 59.1876 7.63002L59.2068 13.3523H57.836L57.8179 7.63002Z" fill="black"/>
<path d="M61.7019 8.56483C61.7019 9.09892 61.8032 9.60417 62.0057 10.0816C62.2093 10.5581 62.4886 10.9746 62.8446 11.3314C63.1996 11.6871 63.6142 11.9681 64.0907 12.171C64.5672 12.375 65.0713 12.4765 65.6032 12.4765C66.1362 12.4765 66.6415 12.375 67.1179 12.171C67.5923 11.9681 68.0091 11.6882 68.364 11.3314C68.6177 11.0772 68.833 10.7845 69.0121 10.4544H70.4778L70.4202 10.6072C70.1526 11.2438 69.7828 11.7993 69.3063 12.2768C68.8309 12.7532 68.2745 13.1292 67.6402 13.4026C67.0049 13.675 66.327 13.8128 65.6032 13.8128C64.8805 13.8128 64.2015 13.6761 63.5673 13.4026C62.932 13.1292 62.3777 12.7542 61.9013 12.2768C61.4258 11.7993 61.0517 11.2438 60.7788 10.6072C60.5049 9.97163 60.3695 9.2912 60.3695 8.5659C60.3695 7.84167 60.5049 7.16124 60.7788 6.52461C61.0517 5.88904 61.4258 5.33252 61.9013 4.85611C62.3777 4.37863 62.932 4.00477 63.5673 3.73025C64.2015 3.4568 64.8805 3.32007 65.6032 3.32007C66.327 3.32007 67.0049 3.4568 67.6402 3.73025C68.2745 4.0037 68.8298 4.37863 69.3063 4.85611C69.7817 5.33252 70.1526 5.88904 70.4202 6.52461L70.4778 6.65813H68.9929C68.8277 6.33981 68.6177 6.05461 68.364 5.79931C68.0091 5.44361 67.5933 5.16375 67.1179 4.95972C66.6425 4.75677 66.1373 4.65423 65.6032 4.65423C65.0713 4.65423 64.5661 4.7557 64.0907 4.95972C63.6153 5.16375 63.1996 5.44361 62.8446 5.79931C62.4886 6.15502 62.2093 6.57161 62.0057 7.04908C61.8021 7.52549 61.7019 8.03074 61.7019 8.56483Z" fill="black"/>
<path d="M72.7217 8.56483C72.7217 9.09892 72.823 9.60417 73.0255 10.0816C73.2291 10.5581 73.5073 10.9746 73.8633 11.3314C74.2183 11.6871 74.634 11.9681 75.1105 12.171C75.5859 12.375 76.0901 12.4765 76.623 12.4765C77.156 12.4765 77.6602 12.375 78.1367 12.171C78.6121 11.9681 79.0278 11.6882 79.3838 11.3314C79.6375 11.0772 79.8528 10.7845 80.0308 10.4544H81.4965L81.4389 10.6072C81.1724 11.2438 80.8015 11.7993 80.325 12.2768C79.8496 12.7532 79.2943 13.1292 78.659 13.4026C78.0247 13.675 77.3457 13.8128 76.623 13.8128C75.9003 13.8128 75.2213 13.6761 74.586 13.4026C73.9518 13.1292 73.3975 12.7542 72.9211 12.2768C72.4457 11.7993 72.0704 11.2438 71.7976 10.6072C71.5247 9.97163 71.3882 9.2912 71.3882 8.5659C71.3882 7.84167 71.5247 7.16124 71.7976 6.52461C72.0704 5.88904 72.4457 5.33252 72.9211 4.85611C73.3965 4.37863 73.9518 4.00477 74.586 3.73025C75.2213 3.4568 75.9003 3.32007 76.623 3.32007C77.3457 3.32007 78.0247 3.4568 78.659 3.73025C79.2943 4.0037 79.8486 4.37863 80.325 4.85611C80.8004 5.33252 81.1724 5.88904 81.4389 6.52461C81.6681 7.04588 81.8003 7.59279 81.8387 8.16533H72.7398C72.7281 8.3042 72.7217 8.43772 72.7217 8.56483ZM79.3838 5.79931C79.0278 5.44361 78.6131 5.16375 78.1367 4.95972C77.6613 4.75677 77.1571 4.65423 76.623 4.65423C76.0901 4.65423 75.5859 4.7557 75.1105 4.95972C74.634 5.16375 74.2183 5.44361 73.8633 5.79931C73.5596 6.10481 73.3112 6.4477 73.1215 6.82904H80.1065C79.9168 6.4477 79.6759 6.10375 79.3838 5.79931Z" fill="black"/>
<path d="M82.5058 8.58397C82.5058 7.85974 82.6412 7.17931 82.9141 6.54268C83.1869 5.90711 83.5621 5.35059 84.0375 4.87418C84.513 4.39777 85.0683 4.02284 85.7036 3.74832C86.3378 3.47486 87.0168 3.33813 87.7395 3.33813C88.4633 3.33813 89.1412 3.47486 89.7765 3.74832C90.4108 4.02177 90.9661 4.3967 91.4426 4.87418C91.9169 5.35059 92.2921 5.90711 92.565 6.54268C92.8379 7.17931 92.9743 7.85867 92.9743 8.58397C92.9743 9.30926 92.8379 9.98862 92.565 10.6253C92.2921 11.2619 91.9169 11.8173 91.4426 12.2938C90.9672 12.7702 90.4108 13.1462 89.7765 13.4186C89.1412 13.692 88.4633 13.8287 87.7395 13.8287C87.0168 13.8287 86.2739 13.6343 85.5128 13.2476C84.7517 12.8599 84.1932 12.3792 83.8382 11.8077V17.1486H82.5058V8.58397ZM83.8382 8.58397C83.8382 9.11806 83.9395 9.62331 84.142 10.1008C84.3456 10.5772 84.6249 10.9938 84.9798 11.3506C85.3359 11.7063 85.7505 11.9861 86.227 12.1901C86.7024 12.3942 87.2066 12.4956 87.7395 12.4956C88.2725 12.4956 88.7767 12.3942 89.2532 12.1901C89.7286 11.9872 90.1443 11.7073 90.5003 11.3506C90.8553 10.9949 91.1345 10.5783 91.3381 10.1008C91.5417 9.62331 91.643 9.11806 91.643 8.58397C91.643 8.04988 91.5406 7.54463 91.3381 7.06822C91.1345 6.59074 90.8553 6.17522 90.5003 5.81845C90.1443 5.46275 89.7296 5.18288 89.2532 4.97886C88.7777 4.77591 88.2736 4.67336 87.7395 4.67336C87.2066 4.67336 86.7024 4.77484 86.227 4.97886C85.7505 5.18288 85.3359 5.46275 84.9798 5.81845C84.6249 6.17415 84.3456 6.59074 84.142 7.06822C83.9395 7.54356 83.8382 8.04988 83.8382 8.58397Z" fill="black"/>
<path d="M93.2414 5.14969V3.81447H94.2125V0H95.5449V3.81447H98.0381V5.14969H95.5449V13.3522H94.2125V5.14969H93.2414Z" fill="black"/>
<path d="M104.034 10.9522C104.047 10.5207 103.968 10.1842 103.797 9.94279C103.625 9.70138 103.374 9.50483 103.044 9.35315C102.714 9.2004 102.302 9.06154 101.807 8.93442C101.313 8.80731 100.856 8.65456 100.437 8.47724C100.018 8.29992 99.6564 8.03288 99.3516 7.67824C99.0478 7.32361 98.8634 6.87924 98.8005 6.34622C98.7493 5.9275 98.8058 5.54081 98.971 5.18511C99.1363 4.83048 99.3676 4.51643 99.666 4.24298C99.9645 3.96952 100.323 3.74841 100.742 3.57643C101.16 3.40552 101.592 3.32007 102.036 3.32007C102.544 3.32007 102.984 3.40232 103.359 3.56789C103.734 3.73345 104.047 3.94602 104.301 4.20666C104.554 4.46729 104.755 4.73113 104.901 4.99818C105.046 5.26522 105.132 5.49382 105.158 5.68502H103.73C103.616 5.3165 103.4 5.03343 103.082 4.83582C102.765 4.63927 102.417 4.53993 102.035 4.53993C101.781 4.53993 101.508 4.5912 101.216 4.69268C100.924 4.79416 100.654 4.99818 100.408 5.30261C100.16 5.60811 100.068 5.93177 100.132 6.27572C100.195 6.58122 100.344 6.81622 100.578 6.98179C100.813 7.14736 101.124 7.30011 101.511 7.44004C101.898 7.57997 102.326 7.72631 102.797 7.87906C103.266 8.03181 103.707 8.23904 104.118 8.49861C104.531 8.75924 104.852 9.08717 105.08 9.48133C105.308 9.87549 105.422 10.3711 105.422 10.9693C105.422 11.4147 105.33 11.8153 105.146 12.171C104.962 12.5278 104.715 12.8258 104.404 13.0683C104.093 13.3097 103.73 13.4934 103.319 13.6216C102.908 13.7476 102.478 13.8128 102.033 13.8128C101.59 13.8128 101.152 13.7327 100.72 13.5746C100.29 13.4154 99.9091 13.1933 99.5786 12.907C99.2482 12.6207 98.9849 12.2778 98.7888 11.8773C98.5926 11.4767 98.4999 11.0035 98.5127 10.4566H99.8451C99.8451 10.7834 99.9123 11.09 100.046 11.3731C100.179 11.6572 100.422 11.9146 100.771 12.1475C101.123 12.3804 101.572 12.4904 102.121 12.4786C102.744 12.4786 103.213 12.3291 103.526 12.0311C103.84 11.7299 104.009 11.3709 104.034 10.9522Z" fill="black"/>
<path d="M108.841 4.66686C108.841 5.39001 108.273 5.95829 107.536 5.95829C106.807 5.95829 106.224 5.39001 106.224 4.66686C106.224 3.95865 106.806 3.39038 107.536 3.39038C108.273 3.39038 108.841 3.95865 108.841 4.66686ZM106.55 4.66686C106.55 5.23513 106.969 5.6859 107.543 5.6859C108.103 5.6859 108.513 5.23406 108.513 4.67433C108.513 4.10606 108.102 3.64781 107.535 3.64781C106.969 3.64781 106.55 4.10606 106.55 4.66686ZM107.334 5.33554H107.039V4.05906C107.156 4.03556 107.318 4.02061 107.528 4.02061C107.769 4.02061 107.878 4.05906 107.971 4.11354C108.04 4.16802 108.095 4.26949 108.095 4.3934C108.095 4.53333 107.987 4.64229 107.832 4.68929V4.70424C107.956 4.75124 108.026 4.84417 108.065 5.01615C108.104 5.21056 108.127 5.28854 108.157 5.33554H107.839C107.8 5.28854 107.777 5.17211 107.737 5.0247C107.714 4.88477 107.636 4.82281 107.474 4.82281H107.334V5.33554V5.33554ZM107.342 4.61238H107.481C107.645 4.61238 107.777 4.5579 107.777 4.42545C107.777 4.30902 107.691 4.23104 107.505 4.23104C107.427 4.23104 107.373 4.23852 107.342 4.24599V4.61238Z" fill="black"/>
</svg>
