<svg width="40" height="40" viewBox="0 0 40 40" fill="none" xmlns="http://www.w3.org/2000/svg">
<path fill-rule="evenodd" clip-rule="evenodd" d="M4.58398 19.9999C4.58398 28.5133 11.4857 35.4166 20.0007 35.4166C28.514 35.4166 35.4173 28.5133 35.4173 19.9999C35.4173 11.4866 28.514 4.58325 20.0007 4.58325C11.4857 4.58325 4.58398 11.4866 4.58398 19.9999Z" fill="#EB5757"/>
<path fill-rule="evenodd" clip-rule="evenodd" d="M25.8372 15.9417C26.3418 15.4394 26.3435 14.6231 25.8412 14.1186C25.3388 13.614 24.5225 13.6123 24.018 14.1146L20 18.1154L15.982 14.1147C15.4775 13.6124 14.6612 13.6141 14.1588 14.1187C13.6565 14.6232 13.6582 15.4394 14.1628 15.9418L18.2386 20.0002L14.1628 24.0585C13.6582 24.5609 13.6565 25.3771 14.1588 25.8817C14.6612 26.3862 15.4775 26.388 15.982 25.8856L20 21.8848L24.018 25.8855C24.5225 26.3879 25.3388 26.3861 25.8412 25.8816C26.3435 25.3771 26.3418 24.5608 25.8372 24.0584L21.7613 20.0001L25.8372 15.9417Z" fill="white"/>
</svg>
