<svg width="437" height="106" viewBox="0 0 437 106" fill="none" xmlns="http://www.w3.org/2000/svg">
<g clip-path="url(#clip0)">
<path d="M436.351 44.0404C436.351 47.6496 433.533 50.4737 429.855 50.4737C426.214 50.4737 423.32 47.6496 423.32 44.0404C423.32 40.5072 426.227 37.6831 429.855 37.6831C433.52 37.6705 436.351 40.5072 436.351 44.0404ZM424.938 44.0404C424.938 46.8645 427.023 49.1186 429.892 49.1186C432.686 49.1186 434.733 46.8645 434.733 44.0784C434.733 41.2544 432.686 38.9622 429.855 38.9622C427.023 38.9622 424.938 41.2417 424.938 44.0404ZM428.843 47.371H427.365V41.0137C427.946 40.8998 428.755 40.8238 429.804 40.8238C431.005 40.8238 431.548 41.0137 432.003 41.2924C432.357 41.5583 432.623 42.0649 432.623 42.6854C432.623 43.3819 432.079 43.9264 431.308 44.1544V44.2304C431.927 44.4583 432.269 44.9269 432.471 45.788C432.661 46.7505 432.787 47.1431 432.939 47.371H431.359C431.169 47.1431 431.055 46.5605 430.853 45.826C430.739 45.1295 430.347 44.8129 429.539 44.8129H428.843V47.371ZM428.881 43.7618H429.576C430.385 43.7618 431.043 43.4959 431.043 42.8373C431.043 42.2548 430.613 41.8749 429.69 41.8749C429.298 41.8749 429.033 41.9129 428.881 41.9509V43.7618Z" fill="#231F20"/>
<path d="M117.418 62.9491C117.418 65.7605 117.949 68.4072 119.011 70.902C120.073 73.3968 121.488 75.5623 123.271 77.3986C125.053 79.2348 127.151 80.6912 129.578 81.7803C132.004 82.8694 134.57 83.4139 137.3 83.4139C139.297 83.4139 141.219 83.1226 143.064 82.5528C144.897 81.9829 146.616 81.1597 148.196 80.096C149.776 79.0322 151.191 77.7658 152.417 76.2968C153.643 74.8278 154.642 73.2068 155.425 71.4212H158.762C157.928 73.6501 156.803 75.6889 155.387 77.5505C153.972 79.4121 152.329 81.0078 150.458 82.3501C148.587 83.6925 146.54 84.7436 144.277 85.5161C142.028 86.2886 139.677 86.6685 137.224 86.6685C134.052 86.6685 131.056 86.0353 128.25 84.7816C125.444 83.5279 122.992 81.8309 120.907 79.6781C118.821 77.5379 117.166 75.0178 115.94 72.1431C114.714 69.2557 114.107 66.191 114.107 62.9364C114.107 59.6818 114.714 56.6045 115.94 53.7298C117.166 50.8424 118.821 48.335 120.907 46.1821C122.992 44.0293 125.444 42.345 128.25 41.0786C131.056 39.8248 134.052 39.1917 137.224 39.1917C140.119 39.1917 142.862 39.7109 145.453 40.7366C148.044 41.7624 150.344 43.1808 152.379 44.979C154.414 46.7773 156.095 48.9175 157.435 51.4123C158.775 53.8944 159.66 56.5665 160.102 59.4285H117.659C117.494 60.6189 117.418 61.7967 117.418 62.9491ZM137.275 42.4463C135.101 42.4463 133.028 42.7882 131.056 43.4847C129.085 44.1812 127.277 45.1183 125.634 46.3341C123.991 47.5371 122.563 48.9935 121.337 50.6905C120.111 52.3874 119.163 54.211 118.493 56.1612H155.969C155.299 54.211 154.351 52.3874 153.125 50.6905C151.899 48.9935 150.471 47.5498 148.828 46.3341C147.184 45.131 145.39 44.1812 143.443 43.4847C141.509 42.8009 139.449 42.4463 137.275 42.4463Z" fill="#231F20" stroke="black" stroke-width="2.74416" stroke-miterlimit="10"/>
<path d="M201.306 58.3891C201.306 56.2742 200.914 54.2607 200.143 52.3484C199.359 50.4362 198.272 48.7772 196.882 47.3842C195.492 45.9912 193.874 44.8768 192.041 44.0409C190.208 43.2178 188.262 42.7999 186.202 42.7999C184.142 42.7999 182.195 43.1798 180.362 43.9523C178.53 44.7248 176.924 45.7886 175.559 47.1689C174.194 48.5366 173.107 50.1449 172.298 51.9685C171.489 53.7921 171.085 55.7424 171.085 57.7939V84.4514H167.584V41.5968H171.085V47.4222C172.867 44.8514 175.079 42.8379 177.721 41.3815C180.362 39.9252 183.194 39.1907 186.189 39.1907C188.742 39.1907 191.156 39.6972 193.406 40.685C195.656 41.6855 197.641 43.0532 199.334 44.8008C201.028 46.5484 202.368 48.5873 203.341 50.9301C204.314 53.2729 204.807 55.755 204.807 58.3891V84.4387H201.306V58.3891Z" fill="#231F20" stroke="black" stroke-width="2.74416" stroke-miterlimit="10"/>
<path d="M219.495 92.7584C221.278 95.6204 223.654 97.8112 226.637 99.3562C229.607 100.901 232.666 101.674 235.775 101.674C239.175 101.674 242.12 101.028 244.623 99.7488C247.125 98.4571 249.198 96.8361 250.841 94.8606C252.485 92.885 253.711 90.7448 254.519 88.4273C255.328 86.1098 255.733 83.9316 255.733 81.8674V75.0922C253.673 78.5748 250.905 81.3735 247.429 83.4884C243.953 85.6033 240.098 86.6544 235.864 86.6544C232.691 86.6544 229.696 86.0212 226.89 84.7675C224.084 83.5137 221.632 81.8168 219.546 79.6639C217.461 77.5237 215.805 75.0036 214.579 72.1289C213.353 69.2415 212.746 66.1769 212.746 62.9223C212.746 59.6676 213.353 56.5903 214.579 53.7156C215.805 50.8283 217.461 48.3208 219.546 46.168C221.632 44.0151 224.084 42.3308 226.89 41.0644C229.696 39.8107 232.691 39.1775 235.864 39.1775C240.098 39.1775 243.94 40.2413 247.429 42.3435C250.905 44.4583 253.673 47.257 255.733 50.7396V41.5963H258.905V81.8674C258.905 85.236 258.273 88.3387 257.022 91.1627C255.771 93.9868 254.077 96.4182 251.928 98.4444C249.78 100.471 247.328 102.054 244.547 103.206C241.766 104.346 238.847 104.916 235.788 104.916C232.009 104.916 228.432 104.029 225.057 102.256C221.695 100.483 219.028 98.1405 217.081 95.2278L219.495 92.7584ZM215.906 62.8843C215.906 65.7463 216.424 68.4184 217.448 70.9132C218.472 73.408 219.9 75.5608 221.707 77.3971C223.515 79.2333 225.613 80.6897 228.014 81.7788C230.403 82.8679 232.994 83.4124 235.775 83.4124C238.505 83.4124 241.084 82.8679 243.536 81.7788C245.988 80.6897 248.099 79.2333 249.881 77.3971C251.663 75.5608 253.079 73.408 254.14 70.9132C255.202 68.4184 255.733 65.7463 255.733 62.8843C255.733 60.0729 255.202 57.4261 254.14 54.944C253.079 52.4492 251.663 50.2837 249.881 48.4221C248.099 46.5605 245.988 45.1042 243.536 44.0404C241.084 42.9767 238.493 42.4448 235.775 42.4448C232.994 42.4448 230.403 42.9767 228.014 44.0404C225.626 45.1042 223.515 46.5605 221.707 48.4221C219.9 50.2837 218.484 52.4619 217.448 54.944C216.424 57.4388 215.906 60.0856 215.906 62.8843Z" fill="#231F20" stroke="black" stroke-width="2.74416" stroke-miterlimit="10"/>
<path d="M267.322 62.9354C267.322 59.6808 267.928 56.6035 269.154 53.7288C270.38 50.8414 272.024 48.334 274.109 46.1811C276.195 44.0283 278.634 42.344 281.44 41.0776C284.246 39.8239 287.229 39.1907 290.401 39.1907C293.561 39.1907 296.557 39.8239 299.363 41.0776C302.169 42.3313 304.608 44.0283 306.694 46.1811C308.779 48.3213 310.435 50.8414 311.648 53.7288C312.874 56.6162 313.481 59.6808 313.481 62.9354V84.4514H310.309V75.1054C308.248 78.588 305.48 81.3867 302.004 83.5016C298.529 85.6164 294.674 86.6675 290.439 86.6675C287.267 86.6675 284.271 86.0344 281.465 84.7806C278.659 83.5269 276.207 81.83 274.122 79.6771C272.036 77.5369 270.38 75.0168 269.154 72.1421C267.941 69.2547 267.322 66.1901 267.322 62.9354ZM270.494 62.9734C270.494 65.8355 271.012 68.4949 272.036 70.9643C273.06 73.4211 274.488 75.5867 276.296 77.4482C278.103 79.3098 280.201 80.7662 282.603 81.8299C284.992 82.8937 287.583 83.4129 290.364 83.4129C293.094 83.4129 295.672 82.8811 298.124 81.8299C300.576 80.7662 302.687 79.3098 304.469 77.4482C306.251 75.5867 307.667 73.4211 308.729 70.9643C309.79 68.5076 310.321 65.8355 310.321 62.9734C310.321 60.1621 309.79 57.5026 308.729 54.9825C307.667 52.4624 306.251 50.2842 304.469 48.4606C302.687 46.6244 300.576 45.168 298.124 44.0789C295.672 42.9898 293.081 42.4453 290.364 42.4453C287.583 42.4453 284.992 42.9898 282.603 44.0789C280.214 45.168 278.103 46.6244 276.296 48.4606C274.488 50.2969 273.073 52.4624 272.036 54.9825C271.012 57.5026 270.494 60.1621 270.494 62.9734Z" fill="#231F20" stroke="black" stroke-width="2.74416" stroke-miterlimit="10"/>
<path d="M327.424 92.7584C329.206 95.6204 331.582 97.8112 334.565 99.3562C337.535 100.901 340.594 101.674 343.703 101.674C347.103 101.674 350.048 101.028 352.551 99.7488C355.053 98.4698 357.126 96.8361 358.769 94.8606C360.413 92.885 361.639 90.7448 362.448 88.4273C363.256 86.1098 363.661 83.9316 363.661 81.8674V75.0922C361.601 78.5748 358.833 81.3735 355.357 83.4884C351.881 85.6033 348.026 86.6544 343.792 86.6544C340.619 86.6544 337.624 86.0212 334.818 84.7675C332.012 83.5137 329.56 81.8168 327.474 79.6639C325.389 77.5237 323.733 75.0036 322.507 72.1289C321.281 69.2415 320.674 66.1769 320.674 62.9223C320.674 59.6676 321.281 56.5903 322.507 53.7156C323.733 50.8283 325.389 48.3208 327.474 46.168C329.56 44.0151 332.012 42.3308 334.818 41.0644C337.624 39.8107 340.619 39.1775 343.792 39.1775C348.026 39.1775 351.868 40.2413 355.357 42.3435C358.833 44.4583 361.601 47.257 363.661 50.7396V41.5963H366.833V81.8674C366.833 85.236 366.201 88.3387 364.95 91.1627C363.699 93.9868 362.005 96.4182 359.856 98.4444C357.708 100.471 355.256 102.054 352.475 103.206C349.694 104.346 346.775 104.916 343.716 104.916C339.937 104.916 336.36 104.029 332.985 102.256C329.623 100.483 326.956 98.1405 325.009 95.2278L327.424 92.7584ZM323.834 62.8843C323.834 65.7463 324.352 68.4184 325.376 70.9132C326.4 73.408 327.828 75.5608 329.635 77.3971C331.443 79.2333 333.541 80.6897 335.943 81.7788C338.331 82.8679 340.923 83.4124 343.703 83.4124C346.433 83.4124 349.012 82.8679 351.464 81.7788C353.916 80.6897 356.027 79.2333 357.809 77.3971C359.591 75.5608 361.007 73.408 362.068 70.9132C363.13 68.4184 363.648 65.7463 363.648 62.8843C363.648 60.0729 363.117 57.4261 362.068 54.944C361.007 52.4492 359.591 50.2837 357.809 48.4221C356.027 46.5605 353.916 45.1042 351.464 44.0404C349.012 42.9767 346.421 42.4448 343.703 42.4448C340.923 42.4448 338.331 42.9767 335.943 44.0404C333.554 45.1042 331.443 46.5605 329.635 48.4221C327.828 50.2837 326.412 52.4619 325.376 54.944C324.352 57.4388 323.834 60.0856 323.834 62.8843Z" fill="#231F20" stroke="black" stroke-width="2.74416" stroke-miterlimit="10"/>
<path d="M378.184 62.9481C378.184 65.7595 378.715 68.4062 379.764 70.901C380.825 73.3958 382.241 75.5613 384.023 77.3976C385.805 79.2339 387.904 80.6902 390.33 81.7793C392.757 82.8684 395.323 83.4129 398.053 83.4129C400.05 83.4129 401.971 83.1217 403.817 82.5518C405.649 81.9819 407.368 81.1588 408.948 80.095C410.541 79.0312 411.944 77.7648 413.17 76.2958C414.396 74.8268 415.394 73.2059 416.178 71.4202H419.515C418.681 73.6491 417.556 75.688 416.14 77.5496C414.725 79.4112 413.081 81.0068 411.211 82.3492C409.34 83.6915 407.293 84.7426 405.03 85.5151C402.78 86.2876 400.429 86.6675 397.977 86.6675C394.805 86.6675 391.809 86.0344 389.003 84.7806C386.197 83.5269 383.745 81.83 381.66 79.6771C379.574 77.5369 377.918 75.0168 376.692 72.1421C375.466 69.2547 374.86 66.1901 374.86 62.9354C374.86 59.6808 375.466 56.6035 376.692 53.7288C377.918 50.8414 379.574 48.334 381.66 46.1811C383.745 44.0409 386.197 42.344 389.003 41.0776C391.809 39.8239 394.805 39.1907 397.977 39.1907C400.872 39.1907 403.614 39.7099 406.206 40.7357C408.797 41.7614 411.097 43.1798 413.132 44.9781C415.167 46.7763 416.848 48.9165 418.188 51.4113C419.528 53.8934 420.412 56.5655 420.855 59.4276H378.449C378.26 60.618 378.184 61.7957 378.184 62.9481ZM398.04 42.4453C395.866 42.4453 393.794 42.7872 391.822 43.4837C389.85 44.1802 388.043 45.1174 386.399 46.3331C384.756 47.5362 383.328 48.9925 382.102 50.6895C380.876 52.3864 379.928 54.21 379.258 56.1603H416.734C416.064 54.21 415.116 52.3864 413.89 50.6895C412.664 48.9925 411.236 47.5488 409.593 46.3331C407.95 45.13 406.155 44.1802 404.208 43.4837C402.275 42.7999 400.214 42.4453 398.04 42.4453Z" fill="#231F20" stroke="black" stroke-width="2.74416" stroke-miterlimit="10"/>
</g>
<g clip-path="url(#clip1)">
<path d="M50.5288 37.188H80.7145C86.148 37.188 90.5577 41.5722 90.5577 46.9741V78.9422C90.5577 84.3441 86.148 88.7283 80.7145 88.7283H50.5288C45.0954 88.7283 40.6857 84.3441 40.6857 78.9422V46.9741C40.6857 41.5722 45.0954 37.188 50.5288 37.188Z" fill="#E5284C"/>
<path d="M9.84317 24.7917H40.0289C45.4623 24.7917 49.872 29.1759 49.872 34.5779V66.5459C49.872 71.9479 45.4623 76.3321 40.0289 76.3321H9.84317C4.40974 76.3321 0 71.9479 0 66.5459V34.5779C0 29.1759 4.40974 24.7917 9.84317 24.7917Z" fill="#FC842B"/>
<path d="M40.6837 0H70.8694C76.3029 0 80.7126 4.38419 80.7126 9.78614V41.7542C80.7126 47.1562 76.3029 51.5403 70.8694 51.5403H40.6837C35.2503 51.5403 30.8406 47.1562 30.8406 41.7542V9.78614C30.8406 4.38419 35.2503 0 40.6837 0Z" fill="#F2C051"/>
</g>
<path d="M116.17 0H118.826V10.6474C119.534 9.50597 120.648 8.54984 122.165 7.77684C123.682 7.00384 125.163 6.61628 126.604 6.61628C128.047 6.61628 129.398 6.88885 130.665 7.434C131.929 7.97914 133.036 8.72659 133.984 9.67846C134.934 10.6282 135.678 11.7377 136.224 13.0047C136.768 14.2739 137.04 15.6282 137.04 17.0741C137.04 18.52 136.768 19.8765 136.224 21.1436C135.68 22.4127 134.934 23.52 133.984 24.4719C133.036 25.4217 131.929 26.1712 130.665 26.7164C129.398 27.2594 128.047 27.5341 126.604 27.5341C125.163 27.5341 123.81 27.2615 122.543 26.7164C121.277 26.1712 120.172 25.4238 119.224 24.4719C118.274 23.52 117.528 22.4127 116.984 21.1436C116.442 19.8765 116.17 18.52 116.17 17.0741V0ZM118.826 17.0741C118.826 18.1389 119.028 19.1461 119.434 20.098C119.838 21.0477 120.395 21.8782 121.104 22.5895C121.812 23.2986 122.641 23.8586 123.591 24.2632C124.538 24.67 125.546 24.8723 126.606 24.8723C127.669 24.8723 128.674 24.67 129.624 24.2632C130.573 23.8586 131.4 23.3007 132.11 22.5895C132.817 21.8804 133.374 21.0499 133.78 20.098C134.184 19.1461 134.388 18.1389 134.388 17.0741C134.388 16.0094 134.184 15.0021 133.78 14.0524C133.374 13.1005 132.817 12.2722 132.11 11.5609C131.4 10.8518 130.573 10.2939 129.624 9.88715C128.676 9.48255 127.669 9.27812 126.606 9.27812C125.544 9.27812 124.538 9.48042 123.591 9.88715C122.643 10.2939 121.812 10.8518 121.104 11.5609C120.395 12.27 119.838 13.1005 119.434 14.0524C119.028 15.0021 118.826 16.0094 118.826 17.0741Z" fill="#231F20"/>
<path d="M138.975 1.59711C138.975 1.1414 139.126 0.760222 139.43 0.455707C139.734 0.151193 140.112 0 140.569 0C141.024 0 141.404 0.151193 141.706 0.455707C142.01 0.760222 142.16 1.13927 142.16 1.59711C142.16 2.05281 142.01 2.43399 141.706 2.7385C141.402 3.04302 141.024 3.19421 140.569 3.19421C140.114 3.19421 139.734 3.04089 139.43 2.7385C139.128 2.43399 138.975 2.05281 138.975 1.59711ZM139.205 7.60435H141.861V26.6184H139.205V7.60435Z" fill="#231F20"/>
<path d="M144.096 17.0736C144.096 15.6298 144.368 14.2733 144.912 13.0041C145.456 11.7371 146.202 10.6277 147.152 9.67791C148.1 8.72603 149.207 7.98072 150.471 7.43344C151.735 6.8883 153.089 6.61572 154.532 6.61572C155.975 6.61572 157.326 6.8883 158.593 7.43344C159.857 7.97859 160.964 8.72603 161.912 9.67791C162.86 10.6277 163.606 11.7371 164.152 13.0041C164.696 14.2733 164.968 15.6277 164.968 17.0736C164.968 18.5195 164.696 19.876 164.152 21.143C163.608 22.4122 162.862 23.5195 161.912 24.4714C160.964 25.4211 159.857 26.1707 158.593 26.7158C157.328 27.2589 155.975 27.5336 154.532 27.5336C153.091 27.5336 151.737 27.261 150.471 26.7158C149.204 26.1707 148.1 25.4232 147.152 24.4714C146.204 23.5195 145.456 22.4122 144.912 21.143C144.368 19.876 144.096 18.5195 144.096 17.0736ZM146.752 17.0736C146.752 18.1383 146.954 19.1456 147.36 20.0974C147.764 21.0472 148.32 21.8777 149.03 22.5889C149.738 23.298 150.567 23.8581 151.516 24.2627C152.464 24.6694 153.471 24.8717 154.532 24.8717C155.594 24.8717 156.599 24.6694 157.549 24.2627C158.497 23.8581 159.326 23.3002 160.036 22.5889C160.743 21.8798 161.3 21.0493 161.706 20.0974C162.11 19.1456 162.314 18.1383 162.314 17.0736C162.314 16.0088 162.11 15.0016 161.706 14.0518C161.3 13.1 160.743 12.2716 160.036 11.5604C159.326 10.8512 158.499 10.2933 157.549 9.8866C156.602 9.482 155.594 9.27757 154.532 9.27757C153.469 9.27757 152.464 9.47987 151.516 9.8866C150.569 10.2933 149.738 10.8512 149.03 11.5604C148.32 12.2695 147.764 13.1 147.36 14.0518C146.954 15.0016 146.752 16.0088 146.752 17.0736Z" fill="#231F20"/>
<path d="M169.676 17.0739C169.676 18.1386 169.877 19.1459 170.283 20.0977C170.687 21.0475 171.244 21.878 171.954 22.5892C172.661 23.2983 173.49 23.8584 174.44 24.263C175.388 24.6697 176.395 24.872 177.455 24.872C178.518 24.872 179.523 24.6697 180.473 24.263C181.42 23.8584 182.249 23.3005 182.959 22.5892C183.465 22.0824 183.894 21.4989 184.249 20.8409H187.171L187.056 21.1454C186.525 22.4146 185.785 23.5219 184.835 24.4738C183.888 25.4236 182.78 26.1731 181.514 26.7183C180.25 27.2613 178.896 27.536 177.453 27.536C176.012 27.536 174.659 27.2634 173.392 26.7183C172.126 26.1731 171.021 25.4257 170.073 24.4738C169.125 23.5219 168.377 22.4146 167.833 21.1454C167.289 19.8784 167.017 18.5219 167.017 17.076C167.017 15.6322 167.289 14.2758 167.833 13.0066C168.377 11.7396 169.123 10.6301 170.073 9.68035C171.021 8.72847 172.128 7.98316 173.392 7.43588C174.657 6.89074 176.01 6.61816 177.453 6.61816C178.896 6.61816 180.247 6.89074 181.514 7.43588C182.778 7.98103 183.885 8.72847 184.835 9.68035C185.783 10.6301 186.525 11.7396 187.056 13.0066L187.171 13.2728H184.211C183.881 12.6382 183.465 12.0696 182.959 11.5607C182.249 10.8516 181.423 10.2936 180.473 9.88691C179.525 9.48231 178.518 9.27788 177.455 9.27788C176.393 9.27788 175.388 9.48018 174.44 9.88691C173.492 10.2936 172.661 10.8516 171.954 11.5607C171.244 12.2698 170.687 13.1003 170.283 14.0522C169.877 15.0019 169.676 16.0091 169.676 17.0739Z" fill="#231F20"/>
<path d="M188.99 17.0736C188.99 15.6298 189.262 14.2733 189.805 13.0041C190.349 11.7371 191.097 10.6277 192.045 9.67791C192.995 8.72603 194.1 7.98072 195.364 7.43344C196.631 6.8883 197.985 6.61572 199.425 6.61572C200.868 6.61572 202.22 6.8883 203.486 7.43344C204.751 7.97859 205.858 8.72603 206.805 9.67791C207.753 10.6277 208.501 11.7371 209.045 13.0041C209.589 14.2733 209.861 15.6277 209.861 17.0736C209.861 18.5195 209.589 19.876 209.045 21.143C208.501 22.4122 207.753 23.5195 206.805 24.4714C205.86 25.4211 204.751 26.1707 203.486 26.7158C202.22 27.2589 200.868 27.5336 199.425 27.5336C197.985 27.5336 196.631 27.261 195.364 26.7158C194.1 26.1707 192.995 25.4232 192.045 24.4714C191.097 23.5195 190.349 22.4122 189.805 21.143C189.262 19.876 188.99 18.5195 188.99 17.0736ZM191.646 17.0736C191.646 18.1383 191.848 19.1456 192.251 20.0974C192.657 21.0472 193.212 21.8777 193.922 22.5889C194.629 23.298 195.458 23.8581 196.408 24.2627C197.358 24.6694 198.361 24.8717 199.423 24.8717C200.486 24.8717 201.491 24.6694 202.439 24.2627C203.386 23.8581 204.215 23.3002 204.925 22.5889C205.632 21.8798 206.189 21.0493 206.595 20.0974C207.001 19.1456 207.203 18.1383 207.203 17.0736C207.203 16.0088 206.999 15.0016 206.595 14.0518C206.189 13.1 205.632 12.2716 204.925 11.5604C204.215 10.8512 203.388 10.2933 202.439 9.8866C201.491 9.482 200.486 9.27757 199.423 9.27757C198.361 9.27757 197.358 9.47987 196.408 9.8866C195.46 10.2933 194.629 10.8512 193.922 11.5604C193.212 12.2695 192.657 13.1 192.251 14.0518C191.848 15.0016 191.646 16.0088 191.646 17.0736Z" fill="#231F20"/>
<path d="M226.669 15.2103C226.669 14.399 226.516 13.6387 226.212 12.9296C225.91 12.2205 225.492 11.5987 224.96 11.0663C224.427 10.534 223.809 10.1144 223.101 9.81206C222.391 9.50755 221.648 9.35636 220.861 9.35636C220.077 9.35636 219.331 9.52033 218.624 9.85039C217.914 10.1805 217.296 10.617 216.764 11.1622C216.231 11.7073 215.808 12.3355 215.494 13.0446C215.175 13.7559 215.02 14.4777 215.02 15.2124L215.058 26.62H212.363V7.6038H215.02V9.35423C215.273 8.94963 215.613 8.57484 216.044 8.23199C216.473 7.88915 216.947 7.59954 217.468 7.35678C217.984 7.11615 218.534 6.93301 219.117 6.80525C219.699 6.67748 220.281 6.61572 220.861 6.61572C222.026 6.61572 223.127 6.84358 224.164 7.29928C225.201 7.75499 226.104 8.37041 226.875 9.14341C227.646 9.91641 228.26 10.83 228.717 11.8819C229.172 12.9339 229.399 14.0433 229.399 15.2103L229.438 26.6179H226.705L226.669 15.2103Z" fill="#231F20"/>
<path d="M234.411 17.0739C234.411 18.1386 234.613 19.1459 235.017 20.0977C235.423 21.0475 235.979 21.878 236.689 22.5892C237.397 23.2983 238.223 23.8584 239.173 24.263C240.123 24.6697 241.128 24.872 242.189 24.872C243.251 24.872 244.258 24.6697 245.208 24.263C246.154 23.8584 246.985 23.3005 247.692 22.5892C248.198 22.0824 248.627 21.4989 248.984 20.8409H251.906L251.792 21.1454C251.258 22.4146 250.521 23.5219 249.571 24.4738C248.623 25.4236 247.514 26.1731 246.25 26.7183C244.983 27.2613 243.632 27.536 242.189 27.536C240.748 27.536 239.394 27.2634 238.13 26.7183C236.863 26.1731 235.758 25.4257 234.809 24.4738C233.861 23.5219 233.115 22.4146 232.571 21.1454C232.025 19.8784 231.755 18.5219 231.755 17.076C231.755 15.6322 232.025 14.2758 232.571 13.0066C233.115 11.7396 233.861 10.6301 234.809 9.68035C235.758 8.72847 236.863 7.98316 238.13 7.43588C239.394 6.89074 240.748 6.61816 242.189 6.61816C243.632 6.61816 244.983 6.89074 246.25 7.43588C247.514 7.98103 248.621 8.72847 249.571 9.68035C250.519 10.6301 251.258 11.7396 251.792 13.0066L251.906 13.2728H248.946C248.617 12.6382 248.198 12.0696 247.692 11.5607C246.985 10.8516 246.156 10.2936 245.208 9.88691C244.261 9.48231 243.253 9.27788 242.189 9.27788C241.128 9.27788 240.121 9.48018 239.173 9.88691C238.226 10.2936 237.397 10.8516 236.689 11.5607C235.979 12.2698 235.423 13.1003 235.017 14.0522C234.611 15.0019 234.411 16.0091 234.411 17.0739Z" fill="#231F20"/>
<path d="M256.381 17.0739C256.381 18.1386 256.583 19.1459 256.986 20.0977C257.392 21.0475 257.947 21.878 258.657 22.5892C259.364 23.2983 260.193 23.8584 261.143 24.263C262.091 24.6697 263.096 24.872 264.158 24.872C265.221 24.872 266.226 24.6697 267.176 24.263C268.124 23.8584 268.952 23.3005 269.662 22.5892C270.168 22.0824 270.597 21.4989 270.952 20.8409H273.874L273.759 21.1454C273.228 22.4146 272.488 23.5219 271.538 24.4738C270.591 25.4236 269.484 26.1731 268.217 26.7183C266.953 27.2613 265.599 27.536 264.158 27.536C262.718 27.536 261.364 27.2634 260.097 26.7183C258.833 26.1731 257.728 25.4257 256.778 24.4738C255.83 23.5219 255.082 22.4146 254.538 21.1454C253.994 19.8784 253.722 18.5219 253.722 17.076C253.722 15.6322 253.994 14.2758 254.538 13.0066C255.082 11.7396 255.83 10.6301 256.778 9.68035C257.726 8.72847 258.833 7.98316 260.097 7.43588C261.364 6.89074 262.718 6.61816 264.158 6.61816C265.599 6.61816 266.953 6.89074 268.217 7.43588C269.484 7.98103 270.589 8.72847 271.538 9.68035C272.486 10.6301 273.228 11.7396 273.759 13.0066C274.216 14.0458 274.479 15.1361 274.556 16.2775H256.417C256.394 16.5543 256.381 16.8205 256.381 17.0739ZM269.662 11.5607C268.952 10.8516 268.126 10.2936 267.176 9.88691C266.228 9.48231 265.223 9.27788 264.158 9.27788C263.096 9.27788 262.091 9.48018 261.143 9.88691C260.193 10.2936 259.364 10.8516 258.657 11.5607C258.051 12.1697 257.556 12.8533 257.178 13.6135H271.103C270.724 12.8533 270.244 12.1676 269.662 11.5607Z" fill="#231F20"/>
<path d="M275.885 17.1131C275.885 15.6693 276.155 14.3129 276.699 13.0437C277.243 11.7767 277.991 10.6672 278.939 9.71746C279.887 8.76771 280.994 8.02027 282.26 7.47299C283.525 6.92785 284.878 6.65527 286.319 6.65527C287.762 6.65527 289.114 6.92785 290.38 7.47299C291.644 8.01814 292.752 8.76558 293.701 9.71746C294.647 10.6672 295.395 11.7767 295.939 13.0437C296.483 14.3129 296.755 15.6672 296.755 17.1131C296.755 18.559 296.483 19.9134 295.939 21.1826C295.395 22.4517 294.647 23.559 293.701 24.5088C292.754 25.4585 291.644 26.2081 290.38 26.7511C289.114 27.2963 287.762 27.5688 286.319 27.5688C284.878 27.5688 283.397 27.1813 281.88 26.4104C280.363 25.6374 279.249 24.6791 278.542 23.5399V34.1873H275.885V17.1131ZM278.542 17.1131C278.542 18.1779 278.744 19.1851 279.147 20.137C279.553 21.0867 280.11 21.9172 280.818 22.6285C281.527 23.3376 282.354 23.8955 283.304 24.3022C284.252 24.709 285.257 24.9113 286.319 24.9113C287.382 24.9113 288.387 24.709 289.337 24.3022C290.284 23.8976 291.113 23.3397 291.823 22.6285C292.531 21.9193 293.087 21.0889 293.493 20.137C293.899 19.1851 294.101 18.1779 294.101 17.1131C294.101 16.0484 293.897 15.0411 293.493 14.0914C293.087 13.1395 292.531 12.3112 291.823 11.5999C291.113 10.8908 290.287 10.3329 289.337 9.92615C288.389 9.52155 287.384 9.31712 286.319 9.31712C285.257 9.31712 284.252 9.51942 283.304 9.92615C282.354 10.3329 281.527 10.8908 280.818 11.5999C280.11 12.309 279.553 13.1395 279.147 14.0914C278.744 15.039 278.542 16.0484 278.542 17.1131Z" fill="#231F20"/>
<path d="M297.286 10.2662V7.60435H299.222V0H301.879V7.60435H306.849V10.2662H301.879V26.6184H299.222V10.2662H297.286Z" fill="#231F20"/>
<path d="M318.801 21.8333C318.827 20.973 318.669 20.3022 318.327 19.8209C317.985 19.3396 317.486 18.9478 316.827 18.6454C316.168 18.3409 315.348 18.0641 314.362 17.8107C313.376 17.5573 312.465 17.2528 311.629 16.8993C310.794 16.5458 310.074 16.0134 309.466 15.3064C308.861 14.5994 308.493 13.7136 308.368 12.651C308.266 11.8162 308.378 11.0453 308.708 10.3362C309.037 9.62924 309.498 9.00318 310.093 8.45803C310.688 7.91288 311.402 7.47208 312.237 7.12924C313.072 6.78852 313.933 6.61816 314.817 6.61816C315.83 6.61816 316.708 6.78213 317.456 7.1122C318.202 7.44227 318.827 7.86604 319.332 8.38563C319.838 8.90522 320.238 9.4312 320.529 9.96357C320.818 10.4959 320.99 10.9516 321.041 11.3328H318.196C317.968 10.5982 317.537 10.0338 316.904 9.63989C316.27 9.24807 315.578 9.05002 314.815 9.05002C314.309 9.05002 313.765 9.15224 313.183 9.35454C312.601 9.55684 312.063 9.96357 311.572 10.5705C311.077 11.1795 310.894 11.8247 311.022 12.5104C311.147 13.1195 311.445 13.5879 311.912 13.918C312.38 14.2481 313 14.5526 313.771 14.8315C314.543 15.1105 315.395 15.4022 316.334 15.7068C317.269 16.0113 318.149 16.4244 318.969 16.9419C319.791 17.4614 320.431 18.1152 320.886 18.901C321.341 19.6867 321.568 20.6748 321.568 21.8673C321.568 22.7553 321.385 23.5539 321.018 24.263C320.65 24.9742 320.159 25.5684 319.539 26.0517C318.918 26.533 318.196 26.8993 317.375 27.1548C316.555 27.4061 315.699 27.536 314.813 27.536C313.929 27.536 313.055 27.3763 312.195 27.0611C311.336 26.7438 310.578 26.3009 309.919 25.7302C309.26 25.1595 308.735 24.4759 308.344 23.6774C307.953 22.8788 307.768 21.9355 307.794 20.8452H310.45C310.45 21.4968 310.584 22.108 310.85 22.6723C311.115 23.2387 311.6 23.7519 312.297 24.2161C312.998 24.6804 313.892 24.8997 314.987 24.8763C316.23 24.8763 317.165 24.5782 317.788 23.984C318.414 23.3835 318.75 22.668 318.801 21.8333Z" fill="#231F20"/>
<defs>
<clipPath id="clip0">
<rect width="417.937" height="75.1348" fill="white" transform="translate(18.4158 30.4141)"/>
</clipPath>
<clipPath id="clip1">
<rect width="90.5571" height="88.7277" fill="white"/>
</clipPath>
</defs>
</svg>
