<svg xmlns="http://www.w3.org/2000/svg" width="784.438" height="725.693" viewBox="0 0 784.438 725.693">
  <g id="Layer_16" data-name="Layer 16" transform="translate(-2726.123 -4260.3)">
    <circle id="Ellipse_3" data-name="Ellipse 3" cx="223.53" cy="223.53" r="223.53" transform="translate(2983.136 4385.398)" fill="#ffe0c2"/>
    <path id="Path_71" data-name="Path 71" d="M3107.043,4760.865c140.024-2.509,270.468,1.12,403.518-15.257a396.624,396.624,0,0,0-92.086-18.9c18.122-5.365,29.412-26.562,24.935-44.923s-23.12-31.778-42.016-31.49-36.595,13.393-43.674,30.917c3.015-27.909,5.927-56.861-3.052-83.457s-33.411-50.178-61.441-48.654c-28.541,1.552-50.06,27.839-58.947,55.006s-8.937,56.44-15.837,84.178c-8.688-19.773-38.828-25.48-54.143-10.253-16.355,16.261-11.883,43.288-6.242,65.65C3137.9,4749.673,3144.374,4747.164,3107.043,4760.865Z" fill="#fff"/>
    <path id="Path_72" data-name="Path 72" d="M2810.5,4607.339c133.6-18.677,271.107,2.927,403.518-22.856a396.644,396.644,0,0,0-92.086-18.9c18.122-5.365,29.411-26.562,24.935-44.923s-23.12-31.777-42.017-31.49-36.594,13.393-43.673,30.917c3.015-27.909,5.926-56.861-3.052-83.457s-33.411-50.178-61.441-48.654c-28.541,1.552-50.06,27.84-58.947,55.006s-8.937,56.44-15.837,84.178c-8.688-19.773-38.828-25.48-54.144-10.252-16.354,16.26-11.883,43.288-6.241,65.649C2841.361,4588.547,2821.911,4596.915,2810.5,4607.339Z" fill="#fff"/>
    <g id="Group_6" data-name="Group 6" style="isolation: isolate">
      <rect id="Rectangle_19" data-name="Rectangle 19" width="229.721" height="14.639" transform="translate(2934.543 4914.05)" fill="#e6284a"/>
      <rect id="Rectangle_20" data-name="Rectangle 20" width="229.721" height="14.639" transform="translate(2958.77 4816.031)" fill="#e6284a"/>
      <rect id="Rectangle_21" data-name="Rectangle 21" width="229.721" height="14.639" transform="translate(2983.136 4718.013)" fill="#e6284a"/>
      <rect id="Rectangle_22" data-name="Rectangle 22" width="716.371" height="14.639" transform="translate(3142.791 4982.477) rotate(-76.099)" fill="#e6284a"/>
      <rect id="Rectangle_23" data-name="Rectangle 23" width="716.371" height="14.639" transform="translate(2916.695 4967.44) rotate(-76.099)" fill="#e6284a"/>
      <rect id="Rectangle_24" data-name="Rectangle 24" width="229.721" height="14.639" transform="translate(3007.363 4619.995)" fill="#e6284a"/>
      <rect id="Rectangle_25" data-name="Rectangle 25" width="229.721" height="14.639" transform="translate(3031.59 4521.977)" fill="#e6284a"/>
      <rect id="Rectangle_26" data-name="Rectangle 26" width="229.721" height="14.639" transform="translate(3054.854 4423.958)" fill="#e6284a"/>
      <rect id="Rectangle_27" data-name="Rectangle 27" width="229.721" height="14.639" transform="translate(3079.081 4325.94)" fill="#e6284a"/>
    </g>
    <path id="Path_73" data-name="Path 73" d="M3011.345,4865.891l-.512,17.612a7.759,7.759,0,0,0,.235,2.683c.952,2.865,4.63,3.585,7.649,3.62a66.656,66.656,0,0,0,15.09-1.557,2.6,2.6,0,0,0,2.625-3.052,139.8,139.8,0,0,0-.531-14.429,6.574,6.574,0,0,0-1.236-3.9,6.319,6.319,0,0,0-3.486-1.622C3024.536,4863.793,3017.6,4863.673,3011.345,4865.891Z" fill="#eeb997"/>
    <path id="Path_74" data-name="Path 74" d="M2791.818,4732.407l-14.376,3.448a6.579,6.579,0,0,0-3.58,1.689,6.215,6.215,0,0,0-1.175,2.964,58.1,58.1,0,0,0-.715,17.727,5.637,5.637,0,0,0,.916,2.9c1.544,1.971,4.64,1.244,6.973.333l12.86-5.019c.939-.366,1.988-.845,2.294-1.805a3.442,3.442,0,0,0-.111-1.847C2793.263,4746.2,2791.622,4739.6,2791.818,4732.407Z" fill="#eeb997"/>
    <path id="Path_75" data-name="Path 75" d="M2987.917,4514.6l-60.933,152.493c-3.007,7.525-6.2,15.32-12.175,20.791-7,6.407-16.733,8.661-25.97,10.836a856.465,856.465,0,0,0-92.5,27.366c-2.927,1.049-6.1,2.318-7.585,5.049-1.238,2.272-1.008,5.029-.744,7.6l1.679,16.38c.276,2.686.586,5.478,2.012,7.772,3.83,6.162,12.869,5.449,19.968,3.952q54.868-11.568,109.358-24.845c8.869-2.161,17.9-4.424,25.655-9.234,9.565-5.929,16.446-15.242,23.086-24.328l39.211-53.655a1794.716,1794.716,0,0,0-4.463,208,7.185,7.185,0,0,0,6.9,6.907l27.123,1.079c2.437.1,5.094.129,7.038-1.345,2.231-1.691,2.767-4.766,3.136-7.541q17.7-133.072,35.395-266.146c1.417-10.654,2.836-21.34,2.929-32.087a130.741,130.741,0,0,0-6.762-42.6,8.427,8.427,0,0,0-2.472-4.237c-1.752-1.333-4.183-1.142-6.371-.911A355.522,355.522,0,0,1,2987.917,4514.6Z" fill="#3b3b3b"/>
    <path id="Path_76" data-name="Path 76" d="M3061.373,4260.588c-7.864-.432-15.884-.659-23.474,1.445-13.613,3.773-24.294,14.73-31.09,27.114s-10.27,26.262-14.007,39.885a882.932,882.932,0,0,1-32.3,95.846c-6.913,17.193-14.5,34.388-26.025,48.9,9.037-1.008,18.033,1.609,27.064,2.664a80.04,80.04,0,0,0,60.615-18.517,113.653,113.653,0,0,0,17.65-19.831,101.252,101.252,0,0,0,12.031-20.593c3.277-7.953,5-16.445,7.574-24.652,9.063-28.919,28.769-54.886,30.525-85.141.789-13.588-2.734-28.217-12.864-37.308C3072.089,4265.922,3066.335,4260.86,3061.373,4260.588Z" fill="#3b3b3b"/>
    <path id="Path_77" data-name="Path 77" d="M3110.976,4377.129c10.9-2.143,19.533-4.286,30.437-6.43a44.547,44.547,0,0,0,9.2-2.786c2.316-1.158,4.3-1.866,5.91-4.067a179.672,179.672,0,0,1,44.583-42.86c1.941-1.306,3.966-2.632,5.234-4.6,1.389-2.156,1.7-4.811,1.97-7.361l2.158-20.2a9.34,9.34,0,0,1,1.432-4.815c1.035-1.345,3.192-1.976,4.452-.839a4.683,4.683,0,0,1,1.158,2.682l2.445,12.433a59.841,59.841,0,0,0,15.286-27.48c.441-1.8.837-3.7,2.045-5.106s3.544-2.038,4.916-.794a5.2,5.2,0,0,1,1.275,3.1l4.518,26.447a12.083,12.083,0,0,1,.064,5.64c-1.164,3.7-5.352,5.3-8.864,6.938-12.025,5.6-20.676,16.539-27.652,27.823s-12.815,23.391-21.472,33.443c-8.448,9.808-19.264,17.28-30.378,23.916a300.907,300.907,0,0,1-51.51,24.464C3104.27,4405.575,3104.23,4391.63,3110.976,4377.129Z" fill="#eeb997"/>
    <path id="Path_78" data-name="Path 78" d="M2962.509,4404.25q-26.455,18.828-51.716,39.263a35.815,35.815,0,0,0-6.768,6.56,36.453,36.453,0,0,0-4.068,8.277c-8.07,20.671-16.177,41.466-20.624,63.206-1.91,9.336-3.531,19.572-10.546,26.021-2.161,1.985-4.8,3.564-6.3,6.082a17.559,17.559,0,0,0-1.867,6.654l-2.99,21.059c-.458,3.231-.583,7.233,2.187,8.958,3.725,2.319,8.034-1.87,10.419-5.553l17.045-26.321-3.134,13.1c3.26,1.9,6.873-2.074,8.021-5.671a29.876,29.876,0,0,0,1.184-12.723c-.466-3.758-1.65-7.463-1.432-11.243.356-6.155,4.3-11.417,7.847-16.462a183.138,183.138,0,0,0,24.276-48.629c.992-3.057,1.96-6.244,4.1-8.645,2.565-2.883,6.408-4.192,10.028-5.531a148.738,148.738,0,0,0,41.627-23.632C2978.349,4427.594,2974.913,4416.427,2962.509,4404.25Z" fill="#eeb997"/>
    <path id="Path_79" data-name="Path 79" d="M3023.629,4360.23a19.873,19.873,0,0,1-11.436,19.96,4.738,4.738,0,0,0-2.223,1.459,3.864,3.864,0,0,0-.5,1.718c-1.069,9.392,3.786,18.925,11.333,24.617s17.42,7.785,26.836,6.958c8.718-.765,17.835-4.447,22.18-12.044,1.857-3.246,2.707-6.957,3.482-10.616.306-1.446.589-3.027-.085-4.343-1.6-3.127-6.675-2-9.278-4.355a8.31,8.31,0,0,1-2-3.714q-2.064-6.283-3.644-12.714c-3.9,5.65-12.145,6.856-18.6,4.522S3028.191,4364.278,3023.629,4360.23Z" fill="#e29e79"/>
    <path id="Path_80" data-name="Path 80" d="M3010.49,4307.283c-2.524,12.454.135,25.42,4.4,37.392,2.824,7.935,6.468,15.792,12.377,21.793s14.44,9.917,22.754,8.575c11.4-1.839,19.159-12.564,23.709-23.174a99.557,99.557,0,0,0,6.414-56.618,33.853,33.853,0,0,0-3.732-11.335c-4.211-7.109-12.673-11.09-20.935-11.092s-16.24,3.569-22.707,8.713S3013.984,4290.044,3010.49,4307.283Z" fill="#eeb997"/>
    <path id="Path_81" data-name="Path 81" d="M3010.644,4380.182c4.052,11.353,12.882,21.591,24.573,24.533s25.77-3.359,29.064-14.955c.611-2.151.949-4.566,2.6-6.076,1.68-1.539,4.181-1.638,6.458-1.726a105.805,105.805,0,0,0,41.054-10.071,54.794,54.794,0,0,0,12.436,40.865,3.607,3.607,0,0,1,1.2,2.6,3.472,3.472,0,0,1-1.5,2.021l-21.057,17.129c-2.379,1.935-4.82,3.944-6.264,6.649-1.164,2.179-6.54,4.317-7.811,6.435a32.025,32.025,0,0,1-5.441,7.245c-6.659,6.421-5.095,16.4-4.876,25.646s2.14,18.455,1.517,27.684c-.147,2.19-.556,4.594-2.255,5.982-1.321,1.079-3.127,1.291-4.824,1.46l-30,2.985a105.332,105.332,0,0,1-32.523-.427l-20.36-2.734a4.168,4.168,0,0,1-2.775-1.11c-1.048-1.265-.282-3.149.464-4.613a71.293,71.293,0,0,0,6.284-46.256c-.868-4.247-2.3-8.679-5.658-11.418s-9.151-2.826-11.479.831a333.633,333.633,0,0,0-22.04-48.925C2975.3,4388.693,2991.061,4383.195,3010.644,4380.182Z" fill="#f68521" style="isolation: isolate"/>
    <path id="Path_82" data-name="Path 82" d="M3056.125,4263.879c-13.708.367-30.569,9.354-38.436,20.586s-10.33,26.685-11.538,37.669A67.712,67.712,0,0,1,3037.063,4312c4.44-.325,9.153-.277,12.964-2.578,4.427-2.672,6.595-7.93,7.583-13.006s1.1-10.348,2.772-15.239a75.88,75.88,0,0,1-.74,27.8,61.432,61.432,0,0,1,25.12,4.667c.07-11.133-.83-22.607-5.778-32.581S3064.326,4263.659,3056.125,4263.879Z" fill="#3b3b3b"/>
    <path id="Path_83" data-name="Path 83" d="M2776.244,4736.616c-2.517-2.952-5.1-5.956-8.45-7.921s-7.648-2.733-11.117-1c-3.522,1.765-5.419,5.6-7.025,9.2a437.943,437.943,0,0,0-23.107,65.2,5.913,5.913,0,0,0-.115,3.973,5.213,5.213,0,0,0,2.735,2.275,21.431,21.431,0,0,0,20.911-1.953c11.007-7.8,11.985-23.561,18.711-35.258,1.775-3.086,4.047-6.1,4.328-9.654.232-2.932-.943-5.766-1.537-8.646C2770.266,4746.48,2771.92,4739.581,2776.244,4736.616Z" fill="#3b3b3b"/>
    <path id="Path_84" data-name="Path 84" d="M3010.6,4883.165c-3.324,9.415-2.5,18.5-.447,28.371a6.189,6.189,0,0,0,1.643,3.576,4.927,4.927,0,0,0,2.877.858,664.688,664.688,0,0,0,68.854,1.857c2.424-.06,5.316-.451,6.415-2.918a7.677,7.677,0,0,0,.5-2.92c.211-7.908-2.758-16.081-8.4-20.68-7.678-6.26-18.022-4.9-27.458-4.856a84.315,84.315,0,0,1-15.089-1.293,15.664,15.664,0,0,0-5.075-.537,37.7,37.7,0,0,0-5.75,1.347C3021.6,4888.086,3012.329,4888.574,3010.6,4883.165Z" fill="#3b3b3b"/>
  </g>
</svg>
