<svg width="100" height="65" viewBox="0 0 100 65" fill="none" xmlns="http://www.w3.org/2000/svg">
<path d="M94.9801 0.370035C90.0601 3.76004 86.3301 7.54004 83.8201 12.63C82.4201 15.57 82.5901 17.09 85.8901 18.68C90.8836 21.1174 94.8658 25.2264 97.1455 30.2937C99.4253 35.361 99.8586 41.0666 98.3702 46.42C96.9886 51.7665 93.8159 56.4776 89.3811 59.7678C84.9463 63.058 79.5175 64.7283 74.0002 64.5C57.0502 63.82 46.0002 44.61 53.8102 28.9C61.3402 13.76 72.9402 3.48004 89.9002 0.310038C91.5689 -0.120188 93.322 -0.0994849 94.9801 0.370035Z" fill="#FEFEFE"/>
<path d="M44.1601 0.200145C38.3601 3.87015 34.6801 7.94014 32.2801 13.2001C31.1701 15.6801 31.2201 17.0901 34.1201 18.3901C45.7301 23.5901 49.4601 35.1702 47.2901 45.5102C46.1344 51.0513 43.0496 56.0023 38.585 59.4817C34.1203 62.9612 28.5657 64.7431 22.9101 64.5101C5.73012 63.9401 -5.3099 44.7302 2.6101 28.8002C10.1401 13.7102 21.7401 3.43014 38.6101 0.32014C39.4724 0.142967 40.3498 0.0492026 41.2301 0.0401413C41.8201 0.0301413 42.4301 0.0901449 44.1601 0.200145Z" fill="#FEFEFE"/>
</svg>
