<svg width="104" height="69" viewBox="0 0 104 69" fill="none" xmlns="http://www.w3.org/2000/svg">
<path d="M98.9826 4.36808C94.0626 7.75808 90.3326 11.5381 87.8226 16.6281C86.4226 19.5681 86.5926 21.0881 89.8926 22.6781C94.886 25.1154 98.8683 29.2244 101.148 34.2917C103.428 39.359 103.861 45.0646 102.373 50.4181C100.991 55.7645 97.8183 60.4757 93.3835 63.7659C88.9487 67.056 83.5199 68.7263 78.0026 68.4981C61.0526 67.8181 50.0026 48.6081 57.8126 32.8981C65.3426 17.7581 76.9426 7.47808 93.9026 4.30808C95.5714 3.87786 97.3244 3.89856 98.9826 4.36808Z" fill="#EB5757"/>
<path d="M48.1626 4.19819C42.3626 7.86819 38.6826 11.9382 36.2826 17.1982C35.1726 19.6782 35.2226 21.0882 38.1226 22.3882C49.7326 27.5882 53.4625 39.1682 51.2925 49.5082C50.1368 55.0493 47.052 60.0004 42.5874 63.4798C38.1227 66.9592 32.5681 68.7411 26.9126 68.5082C9.73256 67.9382 -1.30746 48.7282 6.61254 32.7982C14.1425 17.7082 25.7425 7.42819 42.6125 4.31819C43.4749 4.14101 44.3522 4.04725 45.2325 4.03819C45.8225 4.02819 46.4326 4.08819 48.1626 4.19819Z" fill="#EB5757"/>
<path d="M94.9826 0.368082C90.0626 3.75808 86.3326 7.53809 83.8226 12.6281C82.4226 15.5681 82.5926 17.0881 85.8926 18.6781C90.886 21.1154 94.8683 25.2244 97.148 30.2917C99.4277 35.359 99.861 41.0646 98.3726 46.4181C96.9911 51.7645 93.8183 56.4757 89.3835 59.7659C84.9487 63.056 79.5199 64.7263 74.0026 64.4981C57.0526 63.8181 46.0026 44.6081 53.8126 28.8981C61.3426 13.7581 72.9426 3.47808 89.9026 0.308085C91.5714 -0.122141 93.3244 -0.101438 94.9826 0.368082Z" fill="#FEFEFE"/>
<path d="M44.1626 0.198192C38.3626 3.86819 34.6826 7.93819 32.2826 13.1982C31.1726 15.6782 31.2226 17.0882 34.1226 18.3882C45.7326 23.5882 49.4625 35.1682 47.2925 45.5082C46.1368 51.0493 43.052 56.0004 38.5874 59.4798C34.1227 62.9592 28.5681 64.7411 22.9126 64.5082C5.73256 63.9382 -5.30746 44.7282 2.61254 28.7982C10.1425 13.7082 21.7425 3.42819 38.6125 0.318187C39.4749 0.141014 40.3522 0.0472495 41.2325 0.0381882C41.8225 0.0281882 42.4326 0.0881918 44.1626 0.198192Z" fill="#FEFEFE"/>
</svg>
