<svg width="100" height="65" viewBox="0 0 100 65" fill="none" xmlns="http://www.w3.org/2000/svg">
<path d="M4.25912 64.1622C9.17912 60.7722 12.9091 56.9922 15.4191 51.9022C16.8191 48.9622 16.6491 47.4422 13.3491 45.8522C8.35571 43.4149 4.37345 39.3059 2.09371 34.2386C-0.186021 29.1713 -0.619293 23.4656 0.869107 18.1122C2.25062 12.7658 5.42336 8.05458 9.85818 4.7644C14.293 1.47423 19.7218 -0.196033 25.2391 0.0321864C42.1891 0.712188 53.2391 19.9222 45.4291 35.6322C37.8991 50.7722 26.2991 61.0522 9.3391 64.2222C7.67034 64.6524 5.91726 64.6317 4.25912 64.1622Z" fill="#FEFEFE"/>
<path d="M55.0791 64.3321C60.8791 60.6621 64.5591 56.5921 66.9591 51.3321C68.0691 48.8521 68.0191 47.4421 65.1191 46.1421C53.5092 40.9421 49.7792 29.3621 51.9492 19.0221C53.1049 13.481 56.1897 8.5299 60.6543 5.05048C65.119 1.57106 70.6736 -0.210841 76.3291 0.0220775C93.5091 0.592079 104.549 19.8021 96.6292 35.7321C89.0992 50.8221 77.4992 61.1021 60.6292 64.2121C59.7668 64.3893 58.8895 64.483 58.0092 64.4921C57.4192 64.5021 56.8091 64.4421 55.0791 64.3321Z" fill="#FEFEFE"/>
</svg>
