<svg width="104" height="69" viewBox="0 0 104 69" fill="none" xmlns="http://www.w3.org/2000/svg">
<path d="M4.25912 64.1602C9.17912 60.7702 12.9091 56.9902 15.4191 51.9002C16.8191 48.9602 16.6491 47.4402 13.3491 45.8502C8.35571 43.4129 4.37345 39.3039 2.09371 34.2366C-0.186021 29.1693 -0.619293 23.4637 0.869107 18.1102C2.25062 12.7638 5.42336 8.05263 9.85818 4.76245C14.293 1.47228 19.7218 -0.197986 25.2391 0.0302333C42.1891 0.710235 53.2391 19.9202 45.4291 35.6302C37.8991 50.7702 26.2991 61.0502 9.3391 64.2202C7.67034 64.6505 5.91726 64.6298 4.25912 64.1602Z" fill="#EB5757"/>
<path d="M55.0791 64.3301C60.8791 60.6601 64.5591 56.5901 66.9591 51.3301C68.0691 48.8501 68.0191 47.4401 65.1191 46.1401C53.5092 40.9401 49.7792 29.3601 51.9492 19.0201C53.1049 13.479 56.1897 8.52794 60.6543 5.04852C65.119 1.5691 70.6736 -0.212794 76.3291 0.0201243C93.5091 0.590126 104.549 19.8001 96.6292 35.7301C89.0992 50.8201 77.4992 61.1001 60.6292 64.2101C59.7668 64.3873 58.8895 64.4811 58.0092 64.4901C57.4192 64.5001 56.8091 64.4401 55.0791 64.3301Z" fill="#EB5757"/>
<path d="M8.25912 68.1602C13.1791 64.7702 16.9091 60.9902 19.4191 55.9002C20.8191 52.9602 20.6491 51.4402 17.3491 49.8502C12.3557 47.4129 8.37345 43.3039 6.09371 38.2366C3.81398 33.1693 3.38071 27.4637 4.86911 22.1102C6.25062 16.7638 9.42336 12.0526 13.8582 8.76245C18.293 5.47228 23.7218 3.80201 29.2391 4.03023C46.1891 4.71023 57.2391 23.9202 49.4291 39.6302C41.8991 54.7702 30.2991 65.0502 13.3391 68.2202C11.6703 68.6505 9.91726 68.6298 8.25912 68.1602Z" fill="#FEFEFE"/>
<path d="M59.0791 68.3301C64.8791 64.6601 68.5591 60.5901 70.9591 55.3301C72.0691 52.8501 72.0191 51.4401 69.1191 50.1401C57.5092 44.9401 53.7792 33.3601 55.9492 23.0201C57.1049 17.479 60.1897 12.5279 64.6543 9.04852C69.119 5.5691 74.6736 3.78721 80.3291 4.02012C97.5091 4.59013 108.549 23.8001 100.629 39.7301C93.0992 54.8201 81.4992 65.1001 64.6292 68.2101C63.7668 68.3873 62.8895 68.4811 62.0092 68.4901C61.4192 68.5001 60.8091 68.4401 59.0791 68.3301Z" fill="#FEFEFE"/>
</svg>
