<svg width="40" height="40" viewBox="0 0 40 40" fill="none" xmlns="http://www.w3.org/2000/svg">
<path fill-rule="evenodd" clip-rule="evenodd" d="M4.58398 19.9999C4.58398 28.5133 11.4857 35.4166 20.0007 35.4166C28.514 35.4166 35.4173 28.5133 35.4173 19.9999C35.4173 11.4866 28.514 4.58325 20.0007 4.58325C11.4857 4.58325 4.58398 11.4866 4.58398 19.9999Z" fill="#EB5757"/>
<path fill-rule="evenodd" clip-rule="evenodd" d="M28.2624 14.8787C28.8816 15.429 28.9375 16.3771 28.3872 16.9964L20.2904 26.1076C19.7456 26.7207 18.8093 26.7825 18.1886 26.2463L13.3139 22.0355C12.687 21.494 12.6178 20.5468 13.1594 19.9198C13.7009 19.2929 14.6481 19.2237 15.275 19.7653L19.0304 23.0092L26.1447 15.0036C26.695 14.3843 27.6431 14.3284 28.2624 14.8787Z" fill="white"/>
</svg>
